<mxfile host="app.diagrams.net" modified="2024-06-19T09:44:06.404Z" agent="Mozilla/5.0 (X11; Linux x86_64) AppleWebKit/537.36 (KHTML, like Gecko) Chrome/126.0.0.0 Safari/537.36" etag="xx2Yam4kxnHG10CScuUb" version="24.3.0" type="device">
  <diagram name="Strona-1" id="v4VCekdPmlbs_TJpEmG4">
    <mxGraphModel dx="961" dy="658" grid="1" gridSize="10" guides="1" tooltips="1" connect="1" arrows="1" fold="1" page="1" pageScale="1" pageWidth="827" pageHeight="1169" math="0" shadow="0">
      <root>
        <mxCell id="0" />
        <mxCell id="1" parent="0" />
        <mxCell id="Jw0zdJHMeWMEg472P-4y-110" style="edgeStyle=none;rounded=0;orthogonalLoop=1;jettySize=auto;html=1;exitX=1;exitY=0.5;exitDx=0;exitDy=0;entryX=0;entryY=0.5;entryDx=0;entryDy=0;" parent="1" source="Jw0zdJHMeWMEg472P-4y-1" target="Jw0zdJHMeWMEg472P-4y-81" edge="1">
          <mxGeometry relative="1" as="geometry" />
        </mxCell>
        <mxCell id="Jw0zdJHMeWMEg472P-4y-111" style="edgeStyle=none;rounded=0;orthogonalLoop=1;jettySize=auto;html=1;exitX=1;exitY=0.5;exitDx=0;exitDy=0;entryX=0;entryY=0.5;entryDx=0;entryDy=0;" parent="1" source="Jw0zdJHMeWMEg472P-4y-1" target="Jw0zdJHMeWMEg472P-4y-80" edge="1">
          <mxGeometry relative="1" as="geometry" />
        </mxCell>
        <mxCell id="Jw0zdJHMeWMEg472P-4y-112" style="edgeStyle=none;rounded=0;orthogonalLoop=1;jettySize=auto;html=1;exitX=1;exitY=0.5;exitDx=0;exitDy=0;entryX=0;entryY=0.5;entryDx=0;entryDy=0;" parent="1" source="Jw0zdJHMeWMEg472P-4y-1" target="Jw0zdJHMeWMEg472P-4y-79" edge="1">
          <mxGeometry relative="1" as="geometry" />
        </mxCell>
        <mxCell id="Jw0zdJHMeWMEg472P-4y-113" style="edgeStyle=none;rounded=0;orthogonalLoop=1;jettySize=auto;html=1;exitX=1;exitY=0.5;exitDx=0;exitDy=0;entryX=0;entryY=0.5;entryDx=0;entryDy=0;" parent="1" source="Jw0zdJHMeWMEg472P-4y-1" target="Jw0zdJHMeWMEg472P-4y-78" edge="1">
          <mxGeometry relative="1" as="geometry" />
        </mxCell>
        <mxCell id="Jw0zdJHMeWMEg472P-4y-114" style="edgeStyle=none;rounded=0;orthogonalLoop=1;jettySize=auto;html=1;exitX=1;exitY=0.5;exitDx=0;exitDy=0;entryX=0;entryY=0.5;entryDx=0;entryDy=0;" parent="1" source="Jw0zdJHMeWMEg472P-4y-1" target="Jw0zdJHMeWMEg472P-4y-84" edge="1">
          <mxGeometry relative="1" as="geometry" />
        </mxCell>
        <mxCell id="Jw0zdJHMeWMEg472P-4y-115" style="edgeStyle=none;rounded=0;orthogonalLoop=1;jettySize=auto;html=1;exitX=1;exitY=0.5;exitDx=0;exitDy=0;entryX=0;entryY=0.5;entryDx=0;entryDy=0;" parent="1" source="Jw0zdJHMeWMEg472P-4y-1" target="Jw0zdJHMeWMEg472P-4y-85" edge="1">
          <mxGeometry relative="1" as="geometry" />
        </mxCell>
        <mxCell id="Ia9KKRTMNsvTB0w6a25S-14" style="edgeStyle=none;rounded=0;orthogonalLoop=1;jettySize=auto;html=1;exitX=1;exitY=0.5;exitDx=0;exitDy=0;entryX=0;entryY=0.5;entryDx=0;entryDy=0;" edge="1" parent="1" source="Jw0zdJHMeWMEg472P-4y-1" target="Jw0zdJHMeWMEg472P-4y-82">
          <mxGeometry relative="1" as="geometry" />
        </mxCell>
        <mxCell id="Jw0zdJHMeWMEg472P-4y-1" value="selu" style="ellipse;whiteSpace=wrap;html=1;aspect=fixed;" parent="1" vertex="1">
          <mxGeometry x="395" y="415" width="80" height="80" as="geometry" />
        </mxCell>
        <mxCell id="Jw0zdJHMeWMEg472P-4y-103" style="edgeStyle=none;rounded=0;orthogonalLoop=1;jettySize=auto;html=1;exitX=1;exitY=0.5;exitDx=0;exitDy=0;entryX=0;entryY=0.5;entryDx=0;entryDy=0;" parent="1" source="Jw0zdJHMeWMEg472P-4y-2" target="Jw0zdJHMeWMEg472P-4y-84" edge="1">
          <mxGeometry relative="1" as="geometry" />
        </mxCell>
        <mxCell id="Jw0zdJHMeWMEg472P-4y-105" style="edgeStyle=none;rounded=0;orthogonalLoop=1;jettySize=auto;html=1;exitX=1;exitY=0.5;exitDx=0;exitDy=0;entryX=0;entryY=0.5;entryDx=0;entryDy=0;" parent="1" source="Jw0zdJHMeWMEg472P-4y-2" target="Jw0zdJHMeWMEg472P-4y-81" edge="1">
          <mxGeometry relative="1" as="geometry" />
        </mxCell>
        <mxCell id="Jw0zdJHMeWMEg472P-4y-106" style="edgeStyle=none;rounded=0;orthogonalLoop=1;jettySize=auto;html=1;exitX=1;exitY=0.5;exitDx=0;exitDy=0;entryX=0;entryY=0.5;entryDx=0;entryDy=0;" parent="1" source="Jw0zdJHMeWMEg472P-4y-2" target="Jw0zdJHMeWMEg472P-4y-80" edge="1">
          <mxGeometry relative="1" as="geometry" />
        </mxCell>
        <mxCell id="Jw0zdJHMeWMEg472P-4y-107" style="edgeStyle=none;rounded=0;orthogonalLoop=1;jettySize=auto;html=1;exitX=1;exitY=0.5;exitDx=0;exitDy=0;entryX=0;entryY=0.5;entryDx=0;entryDy=0;" parent="1" source="Jw0zdJHMeWMEg472P-4y-2" target="Jw0zdJHMeWMEg472P-4y-79" edge="1">
          <mxGeometry relative="1" as="geometry" />
        </mxCell>
        <mxCell id="Jw0zdJHMeWMEg472P-4y-108" style="edgeStyle=none;rounded=0;orthogonalLoop=1;jettySize=auto;html=1;exitX=1;exitY=0.5;exitDx=0;exitDy=0;entryX=0;entryY=0.5;entryDx=0;entryDy=0;" parent="1" source="Jw0zdJHMeWMEg472P-4y-2" target="Jw0zdJHMeWMEg472P-4y-78" edge="1">
          <mxGeometry relative="1" as="geometry" />
        </mxCell>
        <mxCell id="Jw0zdJHMeWMEg472P-4y-109" style="edgeStyle=none;rounded=0;orthogonalLoop=1;jettySize=auto;html=1;exitX=1;exitY=0.5;exitDx=0;exitDy=0;entryX=0;entryY=0.5;entryDx=0;entryDy=0;" parent="1" source="Jw0zdJHMeWMEg472P-4y-2" target="Jw0zdJHMeWMEg472P-4y-85" edge="1">
          <mxGeometry relative="1" as="geometry" />
        </mxCell>
        <mxCell id="Ia9KKRTMNsvTB0w6a25S-13" style="edgeStyle=none;rounded=0;orthogonalLoop=1;jettySize=auto;html=1;exitX=1;exitY=0.5;exitDx=0;exitDy=0;entryX=0;entryY=0.5;entryDx=0;entryDy=0;" edge="1" parent="1" source="Jw0zdJHMeWMEg472P-4y-2" target="Jw0zdJHMeWMEg472P-4y-82">
          <mxGeometry relative="1" as="geometry" />
        </mxCell>
        <mxCell id="Jw0zdJHMeWMEg472P-4y-2" value="selu" style="ellipse;whiteSpace=wrap;html=1;aspect=fixed;" parent="1" vertex="1">
          <mxGeometry x="395" y="315" width="80" height="80" as="geometry" />
        </mxCell>
        <mxCell id="Jw0zdJHMeWMEg472P-4y-98" style="edgeStyle=none;rounded=0;orthogonalLoop=1;jettySize=auto;html=1;exitX=1;exitY=0.5;exitDx=0;exitDy=0;entryX=0;entryY=0.5;entryDx=0;entryDy=0;" parent="1" source="Jw0zdJHMeWMEg472P-4y-3" target="Jw0zdJHMeWMEg472P-4y-81" edge="1">
          <mxGeometry relative="1" as="geometry" />
        </mxCell>
        <mxCell id="Jw0zdJHMeWMEg472P-4y-99" style="edgeStyle=none;rounded=0;orthogonalLoop=1;jettySize=auto;html=1;exitX=1;exitY=0.5;exitDx=0;exitDy=0;entryX=0;entryY=0.5;entryDx=0;entryDy=0;" parent="1" source="Jw0zdJHMeWMEg472P-4y-3" target="Jw0zdJHMeWMEg472P-4y-80" edge="1">
          <mxGeometry relative="1" as="geometry" />
        </mxCell>
        <mxCell id="Jw0zdJHMeWMEg472P-4y-100" style="edgeStyle=none;rounded=0;orthogonalLoop=1;jettySize=auto;html=1;exitX=1;exitY=0.5;exitDx=0;exitDy=0;entryX=0;entryY=0.5;entryDx=0;entryDy=0;" parent="1" source="Jw0zdJHMeWMEg472P-4y-3" target="Jw0zdJHMeWMEg472P-4y-79" edge="1">
          <mxGeometry relative="1" as="geometry" />
        </mxCell>
        <mxCell id="Jw0zdJHMeWMEg472P-4y-101" style="edgeStyle=none;rounded=0;orthogonalLoop=1;jettySize=auto;html=1;exitX=1;exitY=0.5;exitDx=0;exitDy=0;entryX=0;entryY=0.5;entryDx=0;entryDy=0;" parent="1" source="Jw0zdJHMeWMEg472P-4y-3" target="Jw0zdJHMeWMEg472P-4y-78" edge="1">
          <mxGeometry relative="1" as="geometry" />
        </mxCell>
        <mxCell id="Jw0zdJHMeWMEg472P-4y-102" style="edgeStyle=none;rounded=0;orthogonalLoop=1;jettySize=auto;html=1;exitX=1;exitY=0.5;exitDx=0;exitDy=0;entryX=0;entryY=0.5;entryDx=0;entryDy=0;" parent="1" source="Jw0zdJHMeWMEg472P-4y-3" target="Jw0zdJHMeWMEg472P-4y-84" edge="1">
          <mxGeometry relative="1" as="geometry" />
        </mxCell>
        <mxCell id="Jw0zdJHMeWMEg472P-4y-104" style="edgeStyle=none;rounded=0;orthogonalLoop=1;jettySize=auto;html=1;exitX=1;exitY=0.5;exitDx=0;exitDy=0;entryX=0;entryY=0.5;entryDx=0;entryDy=0;" parent="1" source="Jw0zdJHMeWMEg472P-4y-3" target="Jw0zdJHMeWMEg472P-4y-85" edge="1">
          <mxGeometry relative="1" as="geometry" />
        </mxCell>
        <mxCell id="Ia9KKRTMNsvTB0w6a25S-12" style="edgeStyle=none;rounded=0;orthogonalLoop=1;jettySize=auto;html=1;exitX=1;exitY=0.5;exitDx=0;exitDy=0;entryX=0;entryY=0.5;entryDx=0;entryDy=0;" edge="1" parent="1" source="Jw0zdJHMeWMEg472P-4y-3" target="Jw0zdJHMeWMEg472P-4y-82">
          <mxGeometry relative="1" as="geometry" />
        </mxCell>
        <mxCell id="Jw0zdJHMeWMEg472P-4y-3" value="selu" style="ellipse;whiteSpace=wrap;html=1;aspect=fixed;" parent="1" vertex="1">
          <mxGeometry x="395" y="215" width="80" height="80" as="geometry" />
        </mxCell>
        <mxCell id="Jw0zdJHMeWMEg472P-4y-86" style="edgeStyle=none;rounded=0;orthogonalLoop=1;jettySize=auto;html=1;exitX=1;exitY=0.5;exitDx=0;exitDy=0;entryX=0;entryY=0.5;entryDx=0;entryDy=0;" parent="1" source="Jw0zdJHMeWMEg472P-4y-4" target="Jw0zdJHMeWMEg472P-4y-81" edge="1">
          <mxGeometry relative="1" as="geometry" />
        </mxCell>
        <mxCell id="Jw0zdJHMeWMEg472P-4y-87" style="edgeStyle=none;rounded=0;orthogonalLoop=1;jettySize=auto;html=1;exitX=1;exitY=0.5;exitDx=0;exitDy=0;entryX=0;entryY=0.5;entryDx=0;entryDy=0;" parent="1" source="Jw0zdJHMeWMEg472P-4y-4" target="Jw0zdJHMeWMEg472P-4y-80" edge="1">
          <mxGeometry relative="1" as="geometry" />
        </mxCell>
        <mxCell id="Jw0zdJHMeWMEg472P-4y-88" style="edgeStyle=none;rounded=0;orthogonalLoop=1;jettySize=auto;html=1;exitX=1;exitY=0.5;exitDx=0;exitDy=0;entryX=0;entryY=0.5;entryDx=0;entryDy=0;" parent="1" source="Jw0zdJHMeWMEg472P-4y-4" target="Jw0zdJHMeWMEg472P-4y-79" edge="1">
          <mxGeometry relative="1" as="geometry" />
        </mxCell>
        <mxCell id="Jw0zdJHMeWMEg472P-4y-89" style="edgeStyle=none;rounded=0;orthogonalLoop=1;jettySize=auto;html=1;exitX=1;exitY=0.5;exitDx=0;exitDy=0;entryX=0;entryY=0.5;entryDx=0;entryDy=0;" parent="1" source="Jw0zdJHMeWMEg472P-4y-4" target="Jw0zdJHMeWMEg472P-4y-78" edge="1">
          <mxGeometry relative="1" as="geometry" />
        </mxCell>
        <mxCell id="Jw0zdJHMeWMEg472P-4y-90" style="edgeStyle=none;rounded=0;orthogonalLoop=1;jettySize=auto;html=1;exitX=1;exitY=0.5;exitDx=0;exitDy=0;entryX=0;entryY=0.5;entryDx=0;entryDy=0;" parent="1" source="Jw0zdJHMeWMEg472P-4y-4" target="Jw0zdJHMeWMEg472P-4y-84" edge="1">
          <mxGeometry relative="1" as="geometry" />
        </mxCell>
        <mxCell id="Jw0zdJHMeWMEg472P-4y-91" style="edgeStyle=none;rounded=0;orthogonalLoop=1;jettySize=auto;html=1;exitX=1;exitY=0.5;exitDx=0;exitDy=0;entryX=0;entryY=0.5;entryDx=0;entryDy=0;" parent="1" source="Jw0zdJHMeWMEg472P-4y-4" target="Jw0zdJHMeWMEg472P-4y-85" edge="1">
          <mxGeometry relative="1" as="geometry" />
        </mxCell>
        <mxCell id="Ia9KKRTMNsvTB0w6a25S-11" style="edgeStyle=none;rounded=0;orthogonalLoop=1;jettySize=auto;html=1;exitX=1;exitY=0.5;exitDx=0;exitDy=0;entryX=0;entryY=0.5;entryDx=0;entryDy=0;" edge="1" parent="1" source="Jw0zdJHMeWMEg472P-4y-4" target="Jw0zdJHMeWMEg472P-4y-82">
          <mxGeometry relative="1" as="geometry" />
        </mxCell>
        <mxCell id="Jw0zdJHMeWMEg472P-4y-4" value="selu" style="ellipse;whiteSpace=wrap;html=1;aspect=fixed;" parent="1" vertex="1">
          <mxGeometry x="395" y="115" width="80" height="80" as="geometry" />
        </mxCell>
        <mxCell id="Jw0zdJHMeWMEg472P-4y-122" style="edgeStyle=none;rounded=0;orthogonalLoop=1;jettySize=auto;html=1;exitX=1;exitY=0.5;exitDx=0;exitDy=0;entryX=0;entryY=0.5;entryDx=0;entryDy=0;" parent="1" source="Jw0zdJHMeWMEg472P-4y-5" target="Jw0zdJHMeWMEg472P-4y-81" edge="1">
          <mxGeometry relative="1" as="geometry" />
        </mxCell>
        <mxCell id="Jw0zdJHMeWMEg472P-4y-123" style="edgeStyle=none;rounded=0;orthogonalLoop=1;jettySize=auto;html=1;exitX=1;exitY=0.5;exitDx=0;exitDy=0;entryX=0;entryY=0.5;entryDx=0;entryDy=0;" parent="1" source="Jw0zdJHMeWMEg472P-4y-5" target="Jw0zdJHMeWMEg472P-4y-80" edge="1">
          <mxGeometry relative="1" as="geometry" />
        </mxCell>
        <mxCell id="Jw0zdJHMeWMEg472P-4y-124" style="edgeStyle=none;rounded=0;orthogonalLoop=1;jettySize=auto;html=1;exitX=1;exitY=0.5;exitDx=0;exitDy=0;entryX=0;entryY=0.5;entryDx=0;entryDy=0;" parent="1" source="Jw0zdJHMeWMEg472P-4y-5" target="Jw0zdJHMeWMEg472P-4y-79" edge="1">
          <mxGeometry relative="1" as="geometry" />
        </mxCell>
        <mxCell id="Jw0zdJHMeWMEg472P-4y-125" style="edgeStyle=none;rounded=0;orthogonalLoop=1;jettySize=auto;html=1;exitX=1;exitY=0.5;exitDx=0;exitDy=0;entryX=0;entryY=0.5;entryDx=0;entryDy=0;" parent="1" source="Jw0zdJHMeWMEg472P-4y-5" target="Jw0zdJHMeWMEg472P-4y-78" edge="1">
          <mxGeometry relative="1" as="geometry" />
        </mxCell>
        <mxCell id="Jw0zdJHMeWMEg472P-4y-126" style="edgeStyle=none;rounded=0;orthogonalLoop=1;jettySize=auto;html=1;exitX=1;exitY=0.5;exitDx=0;exitDy=0;entryX=0;entryY=0.5;entryDx=0;entryDy=0;" parent="1" source="Jw0zdJHMeWMEg472P-4y-5" target="Jw0zdJHMeWMEg472P-4y-84" edge="1">
          <mxGeometry relative="1" as="geometry" />
        </mxCell>
        <mxCell id="Jw0zdJHMeWMEg472P-4y-127" style="edgeStyle=none;rounded=0;orthogonalLoop=1;jettySize=auto;html=1;exitX=1;exitY=0.5;exitDx=0;exitDy=0;entryX=0;entryY=0.5;entryDx=0;entryDy=0;" parent="1" source="Jw0zdJHMeWMEg472P-4y-5" target="Jw0zdJHMeWMEg472P-4y-85" edge="1">
          <mxGeometry relative="1" as="geometry" />
        </mxCell>
        <mxCell id="Jw0zdJHMeWMEg472P-4y-128" style="edgeStyle=none;rounded=0;orthogonalLoop=1;jettySize=auto;html=1;exitX=1;exitY=0.5;exitDx=0;exitDy=0;entryX=0;entryY=0.5;entryDx=0;entryDy=0;" parent="1" source="Jw0zdJHMeWMEg472P-4y-5" target="Jw0zdJHMeWMEg472P-4y-82" edge="1">
          <mxGeometry relative="1" as="geometry" />
        </mxCell>
        <mxCell id="Jw0zdJHMeWMEg472P-4y-5" value="selu" style="ellipse;whiteSpace=wrap;html=1;aspect=fixed;" parent="1" vertex="1">
          <mxGeometry x="395" y="865" width="80" height="80" as="geometry" />
        </mxCell>
        <mxCell id="Jw0zdJHMeWMEg472P-4y-6" value="..." style="text;strokeColor=none;fillColor=none;html=1;fontSize=24;fontStyle=1;verticalAlign=top;align=center;rotation=90;" parent="1" vertex="1">
          <mxGeometry x="385" y="770" width="100" height="50" as="geometry" />
        </mxCell>
        <mxCell id="Jw0zdJHMeWMEg472P-4y-9" value="" style="whiteSpace=wrap;html=1;aspect=fixed;" parent="1" vertex="1">
          <mxGeometry x="190" y="110" width="90" height="90" as="geometry" />
        </mxCell>
        <mxCell id="Jw0zdJHMeWMEg472P-4y-10" value="" style="whiteSpace=wrap;html=1;aspect=fixed;" parent="1" vertex="1">
          <mxGeometry x="190" y="860" width="90" height="90" as="geometry" />
        </mxCell>
        <mxCell id="Jw0zdJHMeWMEg472P-4y-11" value="" style="whiteSpace=wrap;html=1;aspect=fixed;" parent="1" vertex="1">
          <mxGeometry x="190" y="310" width="90" height="90" as="geometry" />
        </mxCell>
        <mxCell id="Jw0zdJHMeWMEg472P-4y-12" value="" style="whiteSpace=wrap;html=1;aspect=fixed;" parent="1" vertex="1">
          <mxGeometry x="190" y="210" width="90" height="90" as="geometry" />
        </mxCell>
        <mxCell id="Jw0zdJHMeWMEg472P-4y-13" value="" style="whiteSpace=wrap;html=1;aspect=fixed;" parent="1" vertex="1">
          <mxGeometry x="190" y="410" width="90" height="90" as="geometry" />
        </mxCell>
        <mxCell id="Jw0zdJHMeWMEg472P-4y-14" value="" style="verticalLabelPosition=bottom;shadow=0;dashed=0;align=center;html=1;verticalAlign=top;strokeWidth=1;shape=mxgraph.mockup.markup.curlyBrace;whiteSpace=wrap;strokeColor=#999999;rotation=-90;" parent="1" vertex="1">
          <mxGeometry x="-111.25" y="308.75" width="485" height="97.5" as="geometry" />
        </mxCell>
        <mxCell id="Jw0zdJHMeWMEg472P-4y-15" value="h" style="text;strokeColor=none;fillColor=none;html=1;fontSize=24;fontStyle=1;verticalAlign=top;align=center;rotation=0;" parent="1" vertex="1">
          <mxGeometry x="10" y="332.5" width="100" height="50" as="geometry" />
        </mxCell>
        <mxCell id="Jw0zdJHMeWMEg472P-4y-116" style="edgeStyle=none;rounded=0;orthogonalLoop=1;jettySize=auto;html=1;exitX=1;exitY=0.5;exitDx=0;exitDy=0;entryX=0;entryY=0.5;entryDx=0;entryDy=0;" parent="1" source="Jw0zdJHMeWMEg472P-4y-17" target="Jw0zdJHMeWMEg472P-4y-81" edge="1">
          <mxGeometry relative="1" as="geometry" />
        </mxCell>
        <mxCell id="Jw0zdJHMeWMEg472P-4y-117" style="edgeStyle=none;rounded=0;orthogonalLoop=1;jettySize=auto;html=1;exitX=1;exitY=0.5;exitDx=0;exitDy=0;entryX=0;entryY=0.5;entryDx=0;entryDy=0;" parent="1" source="Jw0zdJHMeWMEg472P-4y-17" target="Jw0zdJHMeWMEg472P-4y-80" edge="1">
          <mxGeometry relative="1" as="geometry" />
        </mxCell>
        <mxCell id="Jw0zdJHMeWMEg472P-4y-118" style="edgeStyle=none;rounded=0;orthogonalLoop=1;jettySize=auto;html=1;exitX=1;exitY=0.5;exitDx=0;exitDy=0;entryX=0;entryY=0.5;entryDx=0;entryDy=0;" parent="1" source="Jw0zdJHMeWMEg472P-4y-17" target="Jw0zdJHMeWMEg472P-4y-79" edge="1">
          <mxGeometry relative="1" as="geometry" />
        </mxCell>
        <mxCell id="Jw0zdJHMeWMEg472P-4y-119" style="edgeStyle=none;rounded=0;orthogonalLoop=1;jettySize=auto;html=1;exitX=1;exitY=0.5;exitDx=0;exitDy=0;entryX=0;entryY=0.5;entryDx=0;entryDy=0;" parent="1" source="Jw0zdJHMeWMEg472P-4y-17" target="Jw0zdJHMeWMEg472P-4y-78" edge="1">
          <mxGeometry relative="1" as="geometry" />
        </mxCell>
        <mxCell id="Jw0zdJHMeWMEg472P-4y-120" style="edgeStyle=none;rounded=0;orthogonalLoop=1;jettySize=auto;html=1;exitX=1;exitY=0.5;exitDx=0;exitDy=0;entryX=0;entryY=0.5;entryDx=0;entryDy=0;" parent="1" source="Jw0zdJHMeWMEg472P-4y-17" target="Jw0zdJHMeWMEg472P-4y-84" edge="1">
          <mxGeometry relative="1" as="geometry" />
        </mxCell>
        <mxCell id="Jw0zdJHMeWMEg472P-4y-121" style="edgeStyle=none;rounded=0;orthogonalLoop=1;jettySize=auto;html=1;exitX=1;exitY=0.5;exitDx=0;exitDy=0;entryX=0;entryY=0.5;entryDx=0;entryDy=0;" parent="1" source="Jw0zdJHMeWMEg472P-4y-17" target="Jw0zdJHMeWMEg472P-4y-85" edge="1">
          <mxGeometry relative="1" as="geometry" />
        </mxCell>
        <mxCell id="Ia9KKRTMNsvTB0w6a25S-15" style="edgeStyle=none;rounded=0;orthogonalLoop=1;jettySize=auto;html=1;exitX=1;exitY=0.5;exitDx=0;exitDy=0;entryX=0;entryY=0.5;entryDx=0;entryDy=0;" edge="1" parent="1" source="Jw0zdJHMeWMEg472P-4y-17" target="Jw0zdJHMeWMEg472P-4y-82">
          <mxGeometry relative="1" as="geometry">
            <mxPoint x="590" y="900" as="targetPoint" />
          </mxGeometry>
        </mxCell>
        <mxCell id="Jw0zdJHMeWMEg472P-4y-17" value="selu" style="ellipse;whiteSpace=wrap;html=1;aspect=fixed;" parent="1" vertex="1">
          <mxGeometry x="395" y="515" width="80" height="80" as="geometry" />
        </mxCell>
        <mxCell id="Jw0zdJHMeWMEg472P-4y-18" value="" style="whiteSpace=wrap;html=1;aspect=fixed;" parent="1" vertex="1">
          <mxGeometry x="190" y="510" width="90" height="90" as="geometry" />
        </mxCell>
        <mxCell id="Jw0zdJHMeWMEg472P-4y-92" style="edgeStyle=none;rounded=0;orthogonalLoop=1;jettySize=auto;html=1;exitX=1;exitY=0.5;exitDx=0;exitDy=0;entryX=0;entryY=0.5;entryDx=0;entryDy=0;" parent="1" source="Jw0zdJHMeWMEg472P-4y-19" target="Jw0zdJHMeWMEg472P-4y-85" edge="1">
          <mxGeometry relative="1" as="geometry" />
        </mxCell>
        <mxCell id="Jw0zdJHMeWMEg472P-4y-93" style="edgeStyle=none;rounded=0;orthogonalLoop=1;jettySize=auto;html=1;exitX=1;exitY=0.5;exitDx=0;exitDy=0;entryX=0;entryY=0.5;entryDx=0;entryDy=0;" parent="1" source="Jw0zdJHMeWMEg472P-4y-19" target="Jw0zdJHMeWMEg472P-4y-84" edge="1">
          <mxGeometry relative="1" as="geometry" />
        </mxCell>
        <mxCell id="Jw0zdJHMeWMEg472P-4y-94" style="edgeStyle=none;rounded=0;orthogonalLoop=1;jettySize=auto;html=1;exitX=1;exitY=0.5;exitDx=0;exitDy=0;entryX=0;entryY=0.5;entryDx=0;entryDy=0;" parent="1" source="Jw0zdJHMeWMEg472P-4y-19" target="Jw0zdJHMeWMEg472P-4y-78" edge="1">
          <mxGeometry relative="1" as="geometry" />
        </mxCell>
        <mxCell id="Jw0zdJHMeWMEg472P-4y-95" style="edgeStyle=none;rounded=0;orthogonalLoop=1;jettySize=auto;html=1;exitX=1;exitY=0.5;exitDx=0;exitDy=0;entryX=0;entryY=0.5;entryDx=0;entryDy=0;" parent="1" source="Jw0zdJHMeWMEg472P-4y-19" target="Jw0zdJHMeWMEg472P-4y-79" edge="1">
          <mxGeometry relative="1" as="geometry" />
        </mxCell>
        <mxCell id="Jw0zdJHMeWMEg472P-4y-96" style="edgeStyle=none;rounded=0;orthogonalLoop=1;jettySize=auto;html=1;exitX=1;exitY=0.5;exitDx=0;exitDy=0;entryX=0;entryY=0.5;entryDx=0;entryDy=0;" parent="1" source="Jw0zdJHMeWMEg472P-4y-19" target="Jw0zdJHMeWMEg472P-4y-80" edge="1">
          <mxGeometry relative="1" as="geometry" />
        </mxCell>
        <mxCell id="Jw0zdJHMeWMEg472P-4y-97" style="edgeStyle=none;rounded=0;orthogonalLoop=1;jettySize=auto;html=1;exitX=1;exitY=0.5;exitDx=0;exitDy=0;entryX=0;entryY=0.5;entryDx=0;entryDy=0;" parent="1" source="Jw0zdJHMeWMEg472P-4y-19" target="Jw0zdJHMeWMEg472P-4y-81" edge="1">
          <mxGeometry relative="1" as="geometry" />
        </mxCell>
        <mxCell id="Ia9KKRTMNsvTB0w6a25S-16" style="edgeStyle=none;rounded=0;orthogonalLoop=1;jettySize=auto;html=1;exitX=1;exitY=0.5;exitDx=0;exitDy=0;entryX=0;entryY=0.5;entryDx=0;entryDy=0;" edge="1" parent="1" source="Jw0zdJHMeWMEg472P-4y-19" target="Jw0zdJHMeWMEg472P-4y-82">
          <mxGeometry relative="1" as="geometry" />
        </mxCell>
        <mxCell id="Jw0zdJHMeWMEg472P-4y-19" value="selu" style="ellipse;whiteSpace=wrap;html=1;aspect=fixed;" parent="1" vertex="1">
          <mxGeometry x="395" y="615" width="80" height="80" as="geometry" />
        </mxCell>
        <mxCell id="Jw0zdJHMeWMEg472P-4y-20" value="" style="whiteSpace=wrap;html=1;aspect=fixed;" parent="1" vertex="1">
          <mxGeometry x="190" y="610" width="90" height="90" as="geometry" />
        </mxCell>
        <mxCell id="Jw0zdJHMeWMEg472P-4y-21" value="" style="verticalLabelPosition=bottom;shadow=0;dashed=0;align=center;html=1;verticalAlign=top;strokeWidth=1;shape=mxgraph.mockup.markup.curlyBrace;whiteSpace=wrap;strokeColor=#999999;rotation=-90;" parent="1" vertex="1">
          <mxGeometry x="-38.91" y="709.85" width="323.75" height="136.57" as="geometry" />
        </mxCell>
        <mxCell id="Jw0zdJHMeWMEg472P-4y-22" value="x" style="text;strokeColor=none;fillColor=none;html=1;fontSize=24;fontStyle=1;verticalAlign=top;align=center;rotation=0;" parent="1" vertex="1">
          <mxGeometry x="10" y="753.13" width="100" height="50" as="geometry" />
        </mxCell>
        <mxCell id="Jw0zdJHMeWMEg472P-4y-23" value="..." style="text;strokeColor=none;fillColor=none;html=1;fontSize=24;fontStyle=1;verticalAlign=top;align=center;rotation=90;" parent="1" vertex="1">
          <mxGeometry x="185" y="770" width="100" height="50" as="geometry" />
        </mxCell>
        <mxCell id="Jw0zdJHMeWMEg472P-4y-44" style="edgeStyle=none;rounded=0;orthogonalLoop=1;jettySize=auto;html=1;exitX=1;exitY=0.5;exitDx=0;exitDy=0;entryX=0;entryY=0.5;entryDx=0;entryDy=0;" parent="1" source="Jw0zdJHMeWMEg472P-4y-24" target="Jw0zdJHMeWMEg472P-4y-35" edge="1">
          <mxGeometry relative="1" as="geometry" />
        </mxCell>
        <mxCell id="Jw0zdJHMeWMEg472P-4y-24" value="x" style="ellipse;whiteSpace=wrap;html=1;aspect=fixed;" parent="1" vertex="1">
          <mxGeometry x="930" y="930" width="80" height="80" as="geometry" />
        </mxCell>
        <mxCell id="Jw0zdJHMeWMEg472P-4y-43" style="edgeStyle=none;rounded=0;orthogonalLoop=1;jettySize=auto;html=1;exitX=1;exitY=0.5;exitDx=0;exitDy=0;entryX=0;entryY=0.5;entryDx=0;entryDy=0;" parent="1" source="Jw0zdJHMeWMEg472P-4y-25" target="Jw0zdJHMeWMEg472P-4y-35" edge="1">
          <mxGeometry relative="1" as="geometry" />
        </mxCell>
        <mxCell id="Jw0zdJHMeWMEg472P-4y-25" value="x" style="ellipse;whiteSpace=wrap;html=1;aspect=fixed;" parent="1" vertex="1">
          <mxGeometry x="930" y="830" width="80" height="80" as="geometry" />
        </mxCell>
        <mxCell id="Jw0zdJHMeWMEg472P-4y-42" style="edgeStyle=none;rounded=0;orthogonalLoop=1;jettySize=auto;html=1;exitX=1;exitY=0.5;exitDx=0;exitDy=0;entryX=0;entryY=0.5;entryDx=0;entryDy=0;" parent="1" source="Jw0zdJHMeWMEg472P-4y-26" target="Jw0zdJHMeWMEg472P-4y-35" edge="1">
          <mxGeometry relative="1" as="geometry" />
        </mxCell>
        <mxCell id="Jw0zdJHMeWMEg472P-4y-26" value="x" style="ellipse;whiteSpace=wrap;html=1;aspect=fixed;" parent="1" vertex="1">
          <mxGeometry x="930" y="730" width="80" height="80" as="geometry" />
        </mxCell>
        <mxCell id="Jw0zdJHMeWMEg472P-4y-41" style="edgeStyle=none;rounded=0;orthogonalLoop=1;jettySize=auto;html=1;exitX=1;exitY=0.5;exitDx=0;exitDy=0;entryX=0;entryY=0.5;entryDx=0;entryDy=0;" parent="1" source="Jw0zdJHMeWMEg472P-4y-27" target="Jw0zdJHMeWMEg472P-4y-35" edge="1">
          <mxGeometry relative="1" as="geometry" />
        </mxCell>
        <mxCell id="Jw0zdJHMeWMEg472P-4y-27" value="x" style="ellipse;whiteSpace=wrap;html=1;aspect=fixed;" parent="1" vertex="1">
          <mxGeometry x="930" y="630" width="80" height="80" as="geometry" />
        </mxCell>
        <mxCell id="Jw0zdJHMeWMEg472P-4y-47" style="edgeStyle=none;rounded=0;orthogonalLoop=1;jettySize=auto;html=1;exitX=1;exitY=0.5;exitDx=0;exitDy=0;entryX=0;entryY=0.5;entryDx=0;entryDy=0;" parent="1" source="Jw0zdJHMeWMEg472P-4y-28" target="Jw0zdJHMeWMEg472P-4y-35" edge="1">
          <mxGeometry relative="1" as="geometry" />
        </mxCell>
        <mxCell id="Jw0zdJHMeWMEg472P-4y-28" value="x" style="ellipse;whiteSpace=wrap;html=1;aspect=fixed;" parent="1" vertex="1">
          <mxGeometry x="930" y="1380" width="80" height="80" as="geometry" />
        </mxCell>
        <mxCell id="Jw0zdJHMeWMEg472P-4y-29" value="..." style="text;strokeColor=none;fillColor=none;html=1;fontSize=24;fontStyle=1;verticalAlign=top;align=center;rotation=90;" parent="1" vertex="1">
          <mxGeometry x="920" y="1285" width="100" height="50" as="geometry" />
        </mxCell>
        <mxCell id="Jw0zdJHMeWMEg472P-4y-45" style="edgeStyle=none;rounded=0;orthogonalLoop=1;jettySize=auto;html=1;exitX=1;exitY=0.5;exitDx=0;exitDy=0;entryX=0;entryY=0.5;entryDx=0;entryDy=0;" parent="1" source="Jw0zdJHMeWMEg472P-4y-30" target="Jw0zdJHMeWMEg472P-4y-35" edge="1">
          <mxGeometry relative="1" as="geometry" />
        </mxCell>
        <mxCell id="Jw0zdJHMeWMEg472P-4y-30" value="x" style="ellipse;whiteSpace=wrap;html=1;aspect=fixed;" parent="1" vertex="1">
          <mxGeometry x="930" y="1030" width="80" height="80" as="geometry" />
        </mxCell>
        <mxCell id="Jw0zdJHMeWMEg472P-4y-46" style="edgeStyle=none;rounded=0;orthogonalLoop=1;jettySize=auto;html=1;exitX=1;exitY=0.5;exitDx=0;exitDy=0;entryX=0;entryY=0.5;entryDx=0;entryDy=0;" parent="1" source="Jw0zdJHMeWMEg472P-4y-31" target="Jw0zdJHMeWMEg472P-4y-35" edge="1">
          <mxGeometry relative="1" as="geometry" />
        </mxCell>
        <mxCell id="Jw0zdJHMeWMEg472P-4y-31" value="x" style="ellipse;whiteSpace=wrap;html=1;aspect=fixed;" parent="1" vertex="1">
          <mxGeometry x="930" y="1130" width="80" height="80" as="geometry" />
        </mxCell>
        <mxCell id="Jw0zdJHMeWMEg472P-4y-48" style="edgeStyle=none;rounded=0;orthogonalLoop=1;jettySize=auto;html=1;exitX=1;exitY=0.5;exitDx=0;exitDy=0;" parent="1" source="Jw0zdJHMeWMEg472P-4y-35" target="Jw0zdJHMeWMEg472P-4y-49" edge="1">
          <mxGeometry relative="1" as="geometry">
            <mxPoint x="1440" y="1050.142857142857" as="targetPoint" />
          </mxGeometry>
        </mxCell>
        <mxCell id="Jw0zdJHMeWMEg472P-4y-35" value="" style="ellipse;whiteSpace=wrap;html=1;aspect=fixed;fillColor=default;" parent="1" vertex="1">
          <mxGeometry x="1200" y="1010" width="80" height="80" as="geometry" />
        </mxCell>
        <mxCell id="Jw0zdJHMeWMEg472P-4y-49" value="Prediction" style="rounded=0;whiteSpace=wrap;html=1;" parent="1" vertex="1">
          <mxGeometry x="1380" y="1020.1428571428571" width="120" height="60" as="geometry" />
        </mxCell>
        <mxCell id="Jw0zdJHMeWMEg472P-4y-56" value="" style="whiteSpace=wrap;html=1;aspect=fixed;" parent="1" vertex="1">
          <mxGeometry x="190" y="1080" width="90" height="90" as="geometry" />
        </mxCell>
        <mxCell id="Jw0zdJHMeWMEg472P-4y-57" value="" style="whiteSpace=wrap;html=1;aspect=fixed;" parent="1" vertex="1">
          <mxGeometry x="190" y="1830" width="90" height="90" as="geometry" />
        </mxCell>
        <mxCell id="Jw0zdJHMeWMEg472P-4y-58" value="" style="whiteSpace=wrap;html=1;aspect=fixed;" parent="1" vertex="1">
          <mxGeometry x="190" y="1280" width="90" height="90" as="geometry" />
        </mxCell>
        <mxCell id="Jw0zdJHMeWMEg472P-4y-59" value="" style="whiteSpace=wrap;html=1;aspect=fixed;" parent="1" vertex="1">
          <mxGeometry x="190" y="1180" width="90" height="90" as="geometry" />
        </mxCell>
        <mxCell id="Jw0zdJHMeWMEg472P-4y-60" value="" style="whiteSpace=wrap;html=1;aspect=fixed;" parent="1" vertex="1">
          <mxGeometry x="190" y="1380" width="90" height="90" as="geometry" />
        </mxCell>
        <mxCell id="Jw0zdJHMeWMEg472P-4y-61" value="" style="verticalLabelPosition=bottom;shadow=0;dashed=0;align=center;html=1;verticalAlign=top;strokeWidth=1;shape=mxgraph.mockup.markup.curlyBrace;whiteSpace=wrap;strokeColor=#999999;rotation=-90;" parent="1" vertex="1">
          <mxGeometry x="-111.25" y="1278.75" width="485" height="97.5" as="geometry" />
        </mxCell>
        <mxCell id="Jw0zdJHMeWMEg472P-4y-62" value="h" style="text;strokeColor=none;fillColor=none;html=1;fontSize=24;fontStyle=1;verticalAlign=top;align=center;rotation=0;" parent="1" vertex="1">
          <mxGeometry x="10" y="1302.5" width="100" height="50" as="geometry" />
        </mxCell>
        <mxCell id="Jw0zdJHMeWMEg472P-4y-64" value="" style="whiteSpace=wrap;html=1;aspect=fixed;" parent="1" vertex="1">
          <mxGeometry x="190" y="1480" width="90" height="90" as="geometry" />
        </mxCell>
        <mxCell id="Jw0zdJHMeWMEg472P-4y-66" value="" style="whiteSpace=wrap;html=1;aspect=fixed;" parent="1" vertex="1">
          <mxGeometry x="190" y="1580" width="90" height="90" as="geometry" />
        </mxCell>
        <mxCell id="Jw0zdJHMeWMEg472P-4y-67" value="" style="verticalLabelPosition=bottom;shadow=0;dashed=0;align=center;html=1;verticalAlign=top;strokeWidth=1;shape=mxgraph.mockup.markup.curlyBrace;whiteSpace=wrap;strokeColor=#999999;rotation=-90;" parent="1" vertex="1">
          <mxGeometry x="-38.91" y="1679.85" width="323.75" height="136.57" as="geometry" />
        </mxCell>
        <mxCell id="Jw0zdJHMeWMEg472P-4y-68" value="x" style="text;strokeColor=none;fillColor=none;html=1;fontSize=24;fontStyle=1;verticalAlign=top;align=center;rotation=0;" parent="1" vertex="1">
          <mxGeometry x="10" y="1723.13" width="100" height="50" as="geometry" />
        </mxCell>
        <mxCell id="Jw0zdJHMeWMEg472P-4y-69" value="..." style="text;strokeColor=none;fillColor=none;html=1;fontSize=24;fontStyle=1;verticalAlign=top;align=center;rotation=90;" parent="1" vertex="1">
          <mxGeometry x="185" y="1740" width="100" height="50" as="geometry" />
        </mxCell>
        <mxCell id="Jw0zdJHMeWMEg472P-4y-194" style="edgeStyle=none;rounded=0;orthogonalLoop=1;jettySize=auto;html=1;exitX=1;exitY=0.5;exitDx=0;exitDy=0;entryX=0;entryY=0.5;entryDx=0;entryDy=0;" parent="1" source="Jw0zdJHMeWMEg472P-4y-78" target="Jw0zdJHMeWMEg472P-4y-24" edge="1">
          <mxGeometry relative="1" as="geometry" />
        </mxCell>
        <mxCell id="Jw0zdJHMeWMEg472P-4y-78" value="" style="ellipse;whiteSpace=wrap;html=1;aspect=fixed;" parent="1" vertex="1">
          <mxGeometry x="590" y="415" width="80" height="80" as="geometry" />
        </mxCell>
        <mxCell id="Jw0zdJHMeWMEg472P-4y-192" style="edgeStyle=none;rounded=0;orthogonalLoop=1;jettySize=auto;html=1;exitX=1;exitY=0.5;exitDx=0;exitDy=0;entryX=0;entryY=0.5;entryDx=0;entryDy=0;" parent="1" source="Jw0zdJHMeWMEg472P-4y-79" target="Jw0zdJHMeWMEg472P-4y-25" edge="1">
          <mxGeometry relative="1" as="geometry" />
        </mxCell>
        <mxCell id="Jw0zdJHMeWMEg472P-4y-79" value="" style="ellipse;whiteSpace=wrap;html=1;aspect=fixed;" parent="1" vertex="1">
          <mxGeometry x="590" y="315" width="80" height="80" as="geometry" />
        </mxCell>
        <mxCell id="Jw0zdJHMeWMEg472P-4y-190" style="edgeStyle=none;rounded=0;orthogonalLoop=1;jettySize=auto;html=1;exitX=1;exitY=0.5;exitDx=0;exitDy=0;entryX=0;entryY=0.5;entryDx=0;entryDy=0;" parent="1" source="Jw0zdJHMeWMEg472P-4y-80" target="Jw0zdJHMeWMEg472P-4y-26" edge="1">
          <mxGeometry relative="1" as="geometry" />
        </mxCell>
        <mxCell id="Jw0zdJHMeWMEg472P-4y-80" value="" style="ellipse;whiteSpace=wrap;html=1;aspect=fixed;" parent="1" vertex="1">
          <mxGeometry x="590" y="215" width="80" height="80" as="geometry" />
        </mxCell>
        <mxCell id="Jw0zdJHMeWMEg472P-4y-188" style="edgeStyle=none;rounded=0;orthogonalLoop=1;jettySize=auto;html=1;exitX=1;exitY=0.5;exitDx=0;exitDy=0;entryX=0;entryY=0.5;entryDx=0;entryDy=0;" parent="1" source="Jw0zdJHMeWMEg472P-4y-81" target="Jw0zdJHMeWMEg472P-4y-27" edge="1">
          <mxGeometry relative="1" as="geometry" />
        </mxCell>
        <mxCell id="Jw0zdJHMeWMEg472P-4y-81" value="" style="ellipse;whiteSpace=wrap;html=1;aspect=fixed;" parent="1" vertex="1">
          <mxGeometry x="590" y="115" width="80" height="80" as="geometry" />
        </mxCell>
        <mxCell id="Jw0zdJHMeWMEg472P-4y-200" style="edgeStyle=none;rounded=0;orthogonalLoop=1;jettySize=auto;html=1;exitX=1;exitY=0.5;exitDx=0;exitDy=0;entryX=0;entryY=0.5;entryDx=0;entryDy=0;" parent="1" source="Jw0zdJHMeWMEg472P-4y-82" target="Jw0zdJHMeWMEg472P-4y-28" edge="1">
          <mxGeometry relative="1" as="geometry" />
        </mxCell>
        <mxCell id="Jw0zdJHMeWMEg472P-4y-82" value="" style="ellipse;whiteSpace=wrap;html=1;aspect=fixed;" parent="1" vertex="1">
          <mxGeometry x="590" y="865" width="80" height="80" as="geometry" />
        </mxCell>
        <mxCell id="Jw0zdJHMeWMEg472P-4y-83" value="..." style="text;strokeColor=none;fillColor=none;html=1;fontSize=24;fontStyle=1;verticalAlign=top;align=center;rotation=90;" parent="1" vertex="1">
          <mxGeometry x="580" y="770" width="100" height="50" as="geometry" />
        </mxCell>
        <mxCell id="Jw0zdJHMeWMEg472P-4y-196" style="edgeStyle=none;rounded=0;orthogonalLoop=1;jettySize=auto;html=1;exitX=1;exitY=0.5;exitDx=0;exitDy=0;entryX=0;entryY=0.5;entryDx=0;entryDy=0;" parent="1" source="Jw0zdJHMeWMEg472P-4y-84" target="Jw0zdJHMeWMEg472P-4y-30" edge="1">
          <mxGeometry relative="1" as="geometry" />
        </mxCell>
        <mxCell id="Jw0zdJHMeWMEg472P-4y-84" value="" style="ellipse;whiteSpace=wrap;html=1;aspect=fixed;" parent="1" vertex="1">
          <mxGeometry x="590" y="515" width="80" height="80" as="geometry" />
        </mxCell>
        <mxCell id="Jw0zdJHMeWMEg472P-4y-198" style="edgeStyle=none;rounded=0;orthogonalLoop=1;jettySize=auto;html=1;exitX=1;exitY=0.5;exitDx=0;exitDy=0;entryX=0;entryY=0.5;entryDx=0;entryDy=0;" parent="1" source="Jw0zdJHMeWMEg472P-4y-85" target="Jw0zdJHMeWMEg472P-4y-31" edge="1">
          <mxGeometry relative="1" as="geometry" />
        </mxCell>
        <mxCell id="Jw0zdJHMeWMEg472P-4y-85" value="" style="ellipse;whiteSpace=wrap;html=1;aspect=fixed;" parent="1" vertex="1">
          <mxGeometry x="590" y="615" width="80" height="80" as="geometry" />
        </mxCell>
        <mxCell id="Jw0zdJHMeWMEg472P-4y-129" style="edgeStyle=none;rounded=0;orthogonalLoop=1;jettySize=auto;html=1;exitX=1;exitY=0.5;exitDx=0;exitDy=0;entryX=0;entryY=0.5;entryDx=0;entryDy=0;" parent="1" source="Jw0zdJHMeWMEg472P-4y-135" target="Jw0zdJHMeWMEg472P-4y-183" edge="1">
          <mxGeometry relative="1" as="geometry" />
        </mxCell>
        <mxCell id="Jw0zdJHMeWMEg472P-4y-130" style="edgeStyle=none;rounded=0;orthogonalLoop=1;jettySize=auto;html=1;exitX=1;exitY=0.5;exitDx=0;exitDy=0;entryX=0;entryY=0.5;entryDx=0;entryDy=0;" parent="1" source="Jw0zdJHMeWMEg472P-4y-135" target="Jw0zdJHMeWMEg472P-4y-182" edge="1">
          <mxGeometry relative="1" as="geometry" />
        </mxCell>
        <mxCell id="Jw0zdJHMeWMEg472P-4y-131" style="edgeStyle=none;rounded=0;orthogonalLoop=1;jettySize=auto;html=1;exitX=1;exitY=0.5;exitDx=0;exitDy=0;entryX=0;entryY=0.5;entryDx=0;entryDy=0;" parent="1" source="Jw0zdJHMeWMEg472P-4y-135" target="Jw0zdJHMeWMEg472P-4y-181" edge="1">
          <mxGeometry relative="1" as="geometry" />
        </mxCell>
        <mxCell id="Jw0zdJHMeWMEg472P-4y-132" style="edgeStyle=none;rounded=0;orthogonalLoop=1;jettySize=auto;html=1;exitX=1;exitY=0.5;exitDx=0;exitDy=0;entryX=0;entryY=0.5;entryDx=0;entryDy=0;" parent="1" source="Jw0zdJHMeWMEg472P-4y-135" target="Jw0zdJHMeWMEg472P-4y-180" edge="1">
          <mxGeometry relative="1" as="geometry" />
        </mxCell>
        <mxCell id="Jw0zdJHMeWMEg472P-4y-133" style="edgeStyle=none;rounded=0;orthogonalLoop=1;jettySize=auto;html=1;exitX=1;exitY=0.5;exitDx=0;exitDy=0;entryX=0;entryY=0.5;entryDx=0;entryDy=0;" parent="1" source="Jw0zdJHMeWMEg472P-4y-135" target="Jw0zdJHMeWMEg472P-4y-186" edge="1">
          <mxGeometry relative="1" as="geometry" />
        </mxCell>
        <mxCell id="Jw0zdJHMeWMEg472P-4y-134" style="edgeStyle=none;rounded=0;orthogonalLoop=1;jettySize=auto;html=1;exitX=1;exitY=0.5;exitDx=0;exitDy=0;entryX=0;entryY=0.5;entryDx=0;entryDy=0;" parent="1" source="Jw0zdJHMeWMEg472P-4y-135" target="Jw0zdJHMeWMEg472P-4y-187" edge="1">
          <mxGeometry relative="1" as="geometry" />
        </mxCell>
        <mxCell id="Ia9KKRTMNsvTB0w6a25S-5" style="edgeStyle=none;rounded=0;orthogonalLoop=1;jettySize=auto;html=1;exitX=1;exitY=0.5;exitDx=0;exitDy=0;" edge="1" parent="1" source="Jw0zdJHMeWMEg472P-4y-135">
          <mxGeometry relative="1" as="geometry">
            <mxPoint x="600" y="1870" as="targetPoint" />
          </mxGeometry>
        </mxCell>
        <mxCell id="Jw0zdJHMeWMEg472P-4y-135" value="tanh" style="ellipse;whiteSpace=wrap;html=1;aspect=fixed;" parent="1" vertex="1">
          <mxGeometry x="405" y="1380.14" width="80" height="80" as="geometry" />
        </mxCell>
        <mxCell id="Jw0zdJHMeWMEg472P-4y-136" style="edgeStyle=none;rounded=0;orthogonalLoop=1;jettySize=auto;html=1;exitX=1;exitY=0.5;exitDx=0;exitDy=0;entryX=0;entryY=0.5;entryDx=0;entryDy=0;" parent="1" source="Jw0zdJHMeWMEg472P-4y-142" target="Jw0zdJHMeWMEg472P-4y-186" edge="1">
          <mxGeometry relative="1" as="geometry" />
        </mxCell>
        <mxCell id="Jw0zdJHMeWMEg472P-4y-137" style="edgeStyle=none;rounded=0;orthogonalLoop=1;jettySize=auto;html=1;exitX=1;exitY=0.5;exitDx=0;exitDy=0;entryX=0;entryY=0.5;entryDx=0;entryDy=0;" parent="1" source="Jw0zdJHMeWMEg472P-4y-142" target="Jw0zdJHMeWMEg472P-4y-183" edge="1">
          <mxGeometry relative="1" as="geometry" />
        </mxCell>
        <mxCell id="Jw0zdJHMeWMEg472P-4y-138" style="edgeStyle=none;rounded=0;orthogonalLoop=1;jettySize=auto;html=1;exitX=1;exitY=0.5;exitDx=0;exitDy=0;entryX=0;entryY=0.5;entryDx=0;entryDy=0;" parent="1" source="Jw0zdJHMeWMEg472P-4y-142" target="Jw0zdJHMeWMEg472P-4y-182" edge="1">
          <mxGeometry relative="1" as="geometry" />
        </mxCell>
        <mxCell id="Jw0zdJHMeWMEg472P-4y-139" style="edgeStyle=none;rounded=0;orthogonalLoop=1;jettySize=auto;html=1;exitX=1;exitY=0.5;exitDx=0;exitDy=0;entryX=0;entryY=0.5;entryDx=0;entryDy=0;" parent="1" source="Jw0zdJHMeWMEg472P-4y-142" target="Jw0zdJHMeWMEg472P-4y-181" edge="1">
          <mxGeometry relative="1" as="geometry" />
        </mxCell>
        <mxCell id="Jw0zdJHMeWMEg472P-4y-140" style="edgeStyle=none;rounded=0;orthogonalLoop=1;jettySize=auto;html=1;exitX=1;exitY=0.5;exitDx=0;exitDy=0;entryX=0;entryY=0.5;entryDx=0;entryDy=0;" parent="1" source="Jw0zdJHMeWMEg472P-4y-142" target="Jw0zdJHMeWMEg472P-4y-180" edge="1">
          <mxGeometry relative="1" as="geometry" />
        </mxCell>
        <mxCell id="Jw0zdJHMeWMEg472P-4y-141" style="edgeStyle=none;rounded=0;orthogonalLoop=1;jettySize=auto;html=1;exitX=1;exitY=0.5;exitDx=0;exitDy=0;entryX=0;entryY=0.5;entryDx=0;entryDy=0;" parent="1" source="Jw0zdJHMeWMEg472P-4y-142" target="Jw0zdJHMeWMEg472P-4y-187" edge="1">
          <mxGeometry relative="1" as="geometry" />
        </mxCell>
        <mxCell id="Ia9KKRTMNsvTB0w6a25S-4" style="edgeStyle=none;rounded=0;orthogonalLoop=1;jettySize=auto;html=1;exitX=1;exitY=0.5;exitDx=0;exitDy=0;entryX=0;entryY=0.5;entryDx=0;entryDy=0;" edge="1" parent="1" source="Jw0zdJHMeWMEg472P-4y-142" target="Jw0zdJHMeWMEg472P-4y-184">
          <mxGeometry relative="1" as="geometry" />
        </mxCell>
        <mxCell id="Jw0zdJHMeWMEg472P-4y-142" value="tanh" style="ellipse;whiteSpace=wrap;html=1;aspect=fixed;" parent="1" vertex="1">
          <mxGeometry x="405" y="1280.14" width="80" height="80" as="geometry" />
        </mxCell>
        <mxCell id="Jw0zdJHMeWMEg472P-4y-143" style="edgeStyle=none;rounded=0;orthogonalLoop=1;jettySize=auto;html=1;exitX=1;exitY=0.5;exitDx=0;exitDy=0;entryX=0;entryY=0.5;entryDx=0;entryDy=0;" parent="1" source="Jw0zdJHMeWMEg472P-4y-149" target="Jw0zdJHMeWMEg472P-4y-183" edge="1">
          <mxGeometry relative="1" as="geometry" />
        </mxCell>
        <mxCell id="Jw0zdJHMeWMEg472P-4y-144" style="edgeStyle=none;rounded=0;orthogonalLoop=1;jettySize=auto;html=1;exitX=1;exitY=0.5;exitDx=0;exitDy=0;entryX=0;entryY=0.5;entryDx=0;entryDy=0;" parent="1" source="Jw0zdJHMeWMEg472P-4y-149" target="Jw0zdJHMeWMEg472P-4y-182" edge="1">
          <mxGeometry relative="1" as="geometry" />
        </mxCell>
        <mxCell id="Jw0zdJHMeWMEg472P-4y-145" style="edgeStyle=none;rounded=0;orthogonalLoop=1;jettySize=auto;html=1;exitX=1;exitY=0.5;exitDx=0;exitDy=0;entryX=0;entryY=0.5;entryDx=0;entryDy=0;" parent="1" source="Jw0zdJHMeWMEg472P-4y-149" target="Jw0zdJHMeWMEg472P-4y-181" edge="1">
          <mxGeometry relative="1" as="geometry" />
        </mxCell>
        <mxCell id="Jw0zdJHMeWMEg472P-4y-146" style="edgeStyle=none;rounded=0;orthogonalLoop=1;jettySize=auto;html=1;exitX=1;exitY=0.5;exitDx=0;exitDy=0;entryX=0;entryY=0.5;entryDx=0;entryDy=0;" parent="1" source="Jw0zdJHMeWMEg472P-4y-149" target="Jw0zdJHMeWMEg472P-4y-180" edge="1">
          <mxGeometry relative="1" as="geometry" />
        </mxCell>
        <mxCell id="Jw0zdJHMeWMEg472P-4y-147" style="edgeStyle=none;rounded=0;orthogonalLoop=1;jettySize=auto;html=1;exitX=1;exitY=0.5;exitDx=0;exitDy=0;entryX=0;entryY=0.5;entryDx=0;entryDy=0;" parent="1" source="Jw0zdJHMeWMEg472P-4y-149" target="Jw0zdJHMeWMEg472P-4y-186" edge="1">
          <mxGeometry relative="1" as="geometry" />
        </mxCell>
        <mxCell id="Jw0zdJHMeWMEg472P-4y-148" style="edgeStyle=none;rounded=0;orthogonalLoop=1;jettySize=auto;html=1;exitX=1;exitY=0.5;exitDx=0;exitDy=0;entryX=0;entryY=0.5;entryDx=0;entryDy=0;" parent="1" source="Jw0zdJHMeWMEg472P-4y-149" target="Jw0zdJHMeWMEg472P-4y-187" edge="1">
          <mxGeometry relative="1" as="geometry" />
        </mxCell>
        <mxCell id="Ia9KKRTMNsvTB0w6a25S-3" style="edgeStyle=none;rounded=0;orthogonalLoop=1;jettySize=auto;html=1;exitX=1;exitY=0.5;exitDx=0;exitDy=0;" edge="1" parent="1" source="Jw0zdJHMeWMEg472P-4y-149">
          <mxGeometry relative="1" as="geometry">
            <mxPoint x="600" y="1870" as="targetPoint" />
          </mxGeometry>
        </mxCell>
        <mxCell id="Jw0zdJHMeWMEg472P-4y-149" value="tanh" style="ellipse;whiteSpace=wrap;html=1;aspect=fixed;" parent="1" vertex="1">
          <mxGeometry x="405" y="1180.14" width="80" height="80" as="geometry" />
        </mxCell>
        <mxCell id="Jw0zdJHMeWMEg472P-4y-150" style="edgeStyle=none;rounded=0;orthogonalLoop=1;jettySize=auto;html=1;exitX=1;exitY=0.5;exitDx=0;exitDy=0;entryX=0;entryY=0.5;entryDx=0;entryDy=0;" parent="1" source="Jw0zdJHMeWMEg472P-4y-156" target="Jw0zdJHMeWMEg472P-4y-183" edge="1">
          <mxGeometry relative="1" as="geometry" />
        </mxCell>
        <mxCell id="Jw0zdJHMeWMEg472P-4y-151" style="edgeStyle=none;rounded=0;orthogonalLoop=1;jettySize=auto;html=1;exitX=1;exitY=0.5;exitDx=0;exitDy=0;entryX=0;entryY=0.5;entryDx=0;entryDy=0;" parent="1" source="Jw0zdJHMeWMEg472P-4y-156" target="Jw0zdJHMeWMEg472P-4y-182" edge="1">
          <mxGeometry relative="1" as="geometry" />
        </mxCell>
        <mxCell id="Jw0zdJHMeWMEg472P-4y-152" style="edgeStyle=none;rounded=0;orthogonalLoop=1;jettySize=auto;html=1;exitX=1;exitY=0.5;exitDx=0;exitDy=0;entryX=0;entryY=0.5;entryDx=0;entryDy=0;" parent="1" source="Jw0zdJHMeWMEg472P-4y-156" target="Jw0zdJHMeWMEg472P-4y-181" edge="1">
          <mxGeometry relative="1" as="geometry" />
        </mxCell>
        <mxCell id="Jw0zdJHMeWMEg472P-4y-153" style="edgeStyle=none;rounded=0;orthogonalLoop=1;jettySize=auto;html=1;exitX=1;exitY=0.5;exitDx=0;exitDy=0;entryX=0;entryY=0.5;entryDx=0;entryDy=0;" parent="1" source="Jw0zdJHMeWMEg472P-4y-156" target="Jw0zdJHMeWMEg472P-4y-180" edge="1">
          <mxGeometry relative="1" as="geometry" />
        </mxCell>
        <mxCell id="Jw0zdJHMeWMEg472P-4y-154" style="edgeStyle=none;rounded=0;orthogonalLoop=1;jettySize=auto;html=1;exitX=1;exitY=0.5;exitDx=0;exitDy=0;entryX=0;entryY=0.5;entryDx=0;entryDy=0;" parent="1" source="Jw0zdJHMeWMEg472P-4y-156" target="Jw0zdJHMeWMEg472P-4y-186" edge="1">
          <mxGeometry relative="1" as="geometry" />
        </mxCell>
        <mxCell id="Jw0zdJHMeWMEg472P-4y-155" style="edgeStyle=none;rounded=0;orthogonalLoop=1;jettySize=auto;html=1;exitX=1;exitY=0.5;exitDx=0;exitDy=0;entryX=0;entryY=0.5;entryDx=0;entryDy=0;" parent="1" source="Jw0zdJHMeWMEg472P-4y-156" target="Jw0zdJHMeWMEg472P-4y-187" edge="1">
          <mxGeometry relative="1" as="geometry" />
        </mxCell>
        <mxCell id="Ia9KKRTMNsvTB0w6a25S-2" style="edgeStyle=none;rounded=0;orthogonalLoop=1;jettySize=auto;html=1;exitX=1;exitY=0.5;exitDx=0;exitDy=0;entryX=0;entryY=0.5;entryDx=0;entryDy=0;" edge="1" parent="1" source="Jw0zdJHMeWMEg472P-4y-156" target="Jw0zdJHMeWMEg472P-4y-184">
          <mxGeometry relative="1" as="geometry" />
        </mxCell>
        <mxCell id="Jw0zdJHMeWMEg472P-4y-156" value="tanh" style="ellipse;whiteSpace=wrap;html=1;aspect=fixed;" parent="1" vertex="1">
          <mxGeometry x="405" y="1080.14" width="80" height="80" as="geometry" />
        </mxCell>
        <mxCell id="Jw0zdJHMeWMEg472P-4y-157" style="edgeStyle=none;rounded=0;orthogonalLoop=1;jettySize=auto;html=1;exitX=1;exitY=0.5;exitDx=0;exitDy=0;entryX=0;entryY=0.5;entryDx=0;entryDy=0;" parent="1" source="Jw0zdJHMeWMEg472P-4y-164" target="Jw0zdJHMeWMEg472P-4y-183" edge="1">
          <mxGeometry relative="1" as="geometry" />
        </mxCell>
        <mxCell id="Jw0zdJHMeWMEg472P-4y-158" style="edgeStyle=none;rounded=0;orthogonalLoop=1;jettySize=auto;html=1;exitX=1;exitY=0.5;exitDx=0;exitDy=0;entryX=0;entryY=0.5;entryDx=0;entryDy=0;" parent="1" source="Jw0zdJHMeWMEg472P-4y-164" target="Jw0zdJHMeWMEg472P-4y-182" edge="1">
          <mxGeometry relative="1" as="geometry" />
        </mxCell>
        <mxCell id="Jw0zdJHMeWMEg472P-4y-159" style="edgeStyle=none;rounded=0;orthogonalLoop=1;jettySize=auto;html=1;exitX=1;exitY=0.5;exitDx=0;exitDy=0;entryX=0;entryY=0.5;entryDx=0;entryDy=0;" parent="1" source="Jw0zdJHMeWMEg472P-4y-164" target="Jw0zdJHMeWMEg472P-4y-181" edge="1">
          <mxGeometry relative="1" as="geometry" />
        </mxCell>
        <mxCell id="Jw0zdJHMeWMEg472P-4y-160" style="edgeStyle=none;rounded=0;orthogonalLoop=1;jettySize=auto;html=1;exitX=1;exitY=0.5;exitDx=0;exitDy=0;entryX=0;entryY=0.5;entryDx=0;entryDy=0;" parent="1" source="Jw0zdJHMeWMEg472P-4y-164" target="Jw0zdJHMeWMEg472P-4y-180" edge="1">
          <mxGeometry relative="1" as="geometry" />
        </mxCell>
        <mxCell id="Jw0zdJHMeWMEg472P-4y-161" style="edgeStyle=none;rounded=0;orthogonalLoop=1;jettySize=auto;html=1;exitX=1;exitY=0.5;exitDx=0;exitDy=0;entryX=0;entryY=0.5;entryDx=0;entryDy=0;" parent="1" source="Jw0zdJHMeWMEg472P-4y-164" target="Jw0zdJHMeWMEg472P-4y-186" edge="1">
          <mxGeometry relative="1" as="geometry" />
        </mxCell>
        <mxCell id="Jw0zdJHMeWMEg472P-4y-162" style="edgeStyle=none;rounded=0;orthogonalLoop=1;jettySize=auto;html=1;exitX=1;exitY=0.5;exitDx=0;exitDy=0;entryX=0;entryY=0.5;entryDx=0;entryDy=0;" parent="1" source="Jw0zdJHMeWMEg472P-4y-164" target="Jw0zdJHMeWMEg472P-4y-187" edge="1">
          <mxGeometry relative="1" as="geometry" />
        </mxCell>
        <mxCell id="Jw0zdJHMeWMEg472P-4y-163" style="edgeStyle=none;rounded=0;orthogonalLoop=1;jettySize=auto;html=1;exitX=1;exitY=0.5;exitDx=0;exitDy=0;entryX=0;entryY=0.5;entryDx=0;entryDy=0;" parent="1" source="Jw0zdJHMeWMEg472P-4y-164" target="Jw0zdJHMeWMEg472P-4y-184" edge="1">
          <mxGeometry relative="1" as="geometry" />
        </mxCell>
        <mxCell id="Jw0zdJHMeWMEg472P-4y-164" value="tanh" style="ellipse;whiteSpace=wrap;html=1;aspect=fixed;" parent="1" vertex="1">
          <mxGeometry x="405" y="1830.14" width="80" height="80" as="geometry" />
        </mxCell>
        <mxCell id="Jw0zdJHMeWMEg472P-4y-165" value="..." style="text;strokeColor=none;fillColor=none;html=1;fontSize=24;fontStyle=1;verticalAlign=top;align=center;rotation=90;" parent="1" vertex="1">
          <mxGeometry x="395" y="1735.14" width="100" height="50" as="geometry" />
        </mxCell>
        <mxCell id="Jw0zdJHMeWMEg472P-4y-166" style="edgeStyle=none;rounded=0;orthogonalLoop=1;jettySize=auto;html=1;exitX=1;exitY=0.5;exitDx=0;exitDy=0;entryX=0;entryY=0.5;entryDx=0;entryDy=0;" parent="1" source="Jw0zdJHMeWMEg472P-4y-172" target="Jw0zdJHMeWMEg472P-4y-183" edge="1">
          <mxGeometry relative="1" as="geometry" />
        </mxCell>
        <mxCell id="Jw0zdJHMeWMEg472P-4y-167" style="edgeStyle=none;rounded=0;orthogonalLoop=1;jettySize=auto;html=1;exitX=1;exitY=0.5;exitDx=0;exitDy=0;entryX=0;entryY=0.5;entryDx=0;entryDy=0;" parent="1" source="Jw0zdJHMeWMEg472P-4y-172" target="Jw0zdJHMeWMEg472P-4y-182" edge="1">
          <mxGeometry relative="1" as="geometry" />
        </mxCell>
        <mxCell id="Jw0zdJHMeWMEg472P-4y-168" style="edgeStyle=none;rounded=0;orthogonalLoop=1;jettySize=auto;html=1;exitX=1;exitY=0.5;exitDx=0;exitDy=0;entryX=0;entryY=0.5;entryDx=0;entryDy=0;" parent="1" source="Jw0zdJHMeWMEg472P-4y-172" target="Jw0zdJHMeWMEg472P-4y-181" edge="1">
          <mxGeometry relative="1" as="geometry" />
        </mxCell>
        <mxCell id="Jw0zdJHMeWMEg472P-4y-169" style="edgeStyle=none;rounded=0;orthogonalLoop=1;jettySize=auto;html=1;exitX=1;exitY=0.5;exitDx=0;exitDy=0;entryX=0;entryY=0.5;entryDx=0;entryDy=0;" parent="1" source="Jw0zdJHMeWMEg472P-4y-172" target="Jw0zdJHMeWMEg472P-4y-180" edge="1">
          <mxGeometry relative="1" as="geometry" />
        </mxCell>
        <mxCell id="Jw0zdJHMeWMEg472P-4y-170" style="edgeStyle=none;rounded=0;orthogonalLoop=1;jettySize=auto;html=1;exitX=1;exitY=0.5;exitDx=0;exitDy=0;entryX=0;entryY=0.5;entryDx=0;entryDy=0;" parent="1" source="Jw0zdJHMeWMEg472P-4y-172" target="Jw0zdJHMeWMEg472P-4y-186" edge="1">
          <mxGeometry relative="1" as="geometry" />
        </mxCell>
        <mxCell id="Jw0zdJHMeWMEg472P-4y-171" style="edgeStyle=none;rounded=0;orthogonalLoop=1;jettySize=auto;html=1;exitX=1;exitY=0.5;exitDx=0;exitDy=0;entryX=0;entryY=0.5;entryDx=0;entryDy=0;" parent="1" source="Jw0zdJHMeWMEg472P-4y-172" target="Jw0zdJHMeWMEg472P-4y-187" edge="1">
          <mxGeometry relative="1" as="geometry" />
        </mxCell>
        <mxCell id="Ia9KKRTMNsvTB0w6a25S-6" style="edgeStyle=none;rounded=0;orthogonalLoop=1;jettySize=auto;html=1;exitX=1;exitY=0.5;exitDx=0;exitDy=0;entryX=0;entryY=0.5;entryDx=0;entryDy=0;" edge="1" parent="1" source="Jw0zdJHMeWMEg472P-4y-172" target="Jw0zdJHMeWMEg472P-4y-184">
          <mxGeometry relative="1" as="geometry" />
        </mxCell>
        <mxCell id="Jw0zdJHMeWMEg472P-4y-172" value="tanh" style="ellipse;whiteSpace=wrap;html=1;aspect=fixed;" parent="1" vertex="1">
          <mxGeometry x="405" y="1480.14" width="80" height="80" as="geometry" />
        </mxCell>
        <mxCell id="Jw0zdJHMeWMEg472P-4y-173" style="edgeStyle=none;rounded=0;orthogonalLoop=1;jettySize=auto;html=1;exitX=1;exitY=0.5;exitDx=0;exitDy=0;entryX=0;entryY=0.5;entryDx=0;entryDy=0;" parent="1" source="Jw0zdJHMeWMEg472P-4y-179" target="Jw0zdJHMeWMEg472P-4y-187" edge="1">
          <mxGeometry relative="1" as="geometry" />
        </mxCell>
        <mxCell id="Jw0zdJHMeWMEg472P-4y-174" style="edgeStyle=none;rounded=0;orthogonalLoop=1;jettySize=auto;html=1;exitX=1;exitY=0.5;exitDx=0;exitDy=0;entryX=0;entryY=0.5;entryDx=0;entryDy=0;" parent="1" source="Jw0zdJHMeWMEg472P-4y-179" target="Jw0zdJHMeWMEg472P-4y-186" edge="1">
          <mxGeometry relative="1" as="geometry" />
        </mxCell>
        <mxCell id="Jw0zdJHMeWMEg472P-4y-175" style="edgeStyle=none;rounded=0;orthogonalLoop=1;jettySize=auto;html=1;exitX=1;exitY=0.5;exitDx=0;exitDy=0;entryX=0;entryY=0.5;entryDx=0;entryDy=0;" parent="1" source="Jw0zdJHMeWMEg472P-4y-179" target="Jw0zdJHMeWMEg472P-4y-180" edge="1">
          <mxGeometry relative="1" as="geometry" />
        </mxCell>
        <mxCell id="Jw0zdJHMeWMEg472P-4y-176" style="edgeStyle=none;rounded=0;orthogonalLoop=1;jettySize=auto;html=1;exitX=1;exitY=0.5;exitDx=0;exitDy=0;entryX=0;entryY=0.5;entryDx=0;entryDy=0;" parent="1" source="Jw0zdJHMeWMEg472P-4y-179" target="Jw0zdJHMeWMEg472P-4y-181" edge="1">
          <mxGeometry relative="1" as="geometry" />
        </mxCell>
        <mxCell id="Jw0zdJHMeWMEg472P-4y-177" style="edgeStyle=none;rounded=0;orthogonalLoop=1;jettySize=auto;html=1;exitX=1;exitY=0.5;exitDx=0;exitDy=0;entryX=0;entryY=0.5;entryDx=0;entryDy=0;" parent="1" source="Jw0zdJHMeWMEg472P-4y-179" target="Jw0zdJHMeWMEg472P-4y-182" edge="1">
          <mxGeometry relative="1" as="geometry" />
        </mxCell>
        <mxCell id="Jw0zdJHMeWMEg472P-4y-178" style="edgeStyle=none;rounded=0;orthogonalLoop=1;jettySize=auto;html=1;exitX=1;exitY=0.5;exitDx=0;exitDy=0;entryX=0;entryY=0.5;entryDx=0;entryDy=0;" parent="1" source="Jw0zdJHMeWMEg472P-4y-179" target="Jw0zdJHMeWMEg472P-4y-183" edge="1">
          <mxGeometry relative="1" as="geometry" />
        </mxCell>
        <mxCell id="Ia9KKRTMNsvTB0w6a25S-7" style="edgeStyle=none;rounded=0;orthogonalLoop=1;jettySize=auto;html=1;exitX=1;exitY=0.5;exitDx=0;exitDy=0;entryX=0;entryY=0.5;entryDx=0;entryDy=0;" edge="1" parent="1" source="Jw0zdJHMeWMEg472P-4y-179" target="Jw0zdJHMeWMEg472P-4y-184">
          <mxGeometry relative="1" as="geometry" />
        </mxCell>
        <mxCell id="Jw0zdJHMeWMEg472P-4y-179" value="tanh" style="ellipse;whiteSpace=wrap;html=1;aspect=fixed;" parent="1" vertex="1">
          <mxGeometry x="405" y="1580.14" width="80" height="80" as="geometry" />
        </mxCell>
        <mxCell id="Jw0zdJHMeWMEg472P-4y-195" style="edgeStyle=none;rounded=0;orthogonalLoop=1;jettySize=auto;html=1;exitX=1;exitY=0.5;exitDx=0;exitDy=0;entryX=0;entryY=0.5;entryDx=0;entryDy=0;" parent="1" source="Jw0zdJHMeWMEg472P-4y-180" target="Jw0zdJHMeWMEg472P-4y-24" edge="1">
          <mxGeometry relative="1" as="geometry" />
        </mxCell>
        <mxCell id="Jw0zdJHMeWMEg472P-4y-180" value="&lt;span style=&quot;color: rgb(32, 33, 34); font-family: sans-serif; font-size: 14.08px; text-align: left; background-color: rgb(248, 249, 250);&quot;&gt;σ&lt;/span&gt;" style="ellipse;whiteSpace=wrap;html=1;aspect=fixed;" parent="1" vertex="1">
          <mxGeometry x="600" y="1380.14" width="80" height="80" as="geometry" />
        </mxCell>
        <mxCell id="Jw0zdJHMeWMEg472P-4y-193" style="edgeStyle=none;rounded=0;orthogonalLoop=1;jettySize=auto;html=1;exitX=1;exitY=0.5;exitDx=0;exitDy=0;entryX=0;entryY=0.5;entryDx=0;entryDy=0;" parent="1" source="Jw0zdJHMeWMEg472P-4y-181" target="Jw0zdJHMeWMEg472P-4y-25" edge="1">
          <mxGeometry relative="1" as="geometry" />
        </mxCell>
        <mxCell id="Jw0zdJHMeWMEg472P-4y-181" value="&lt;span style=&quot;color: rgb(32, 33, 34); font-family: sans-serif; font-size: 14.08px; text-align: left; background-color: rgb(248, 249, 250);&quot;&gt;σ&lt;/span&gt;" style="ellipse;whiteSpace=wrap;html=1;aspect=fixed;" parent="1" vertex="1">
          <mxGeometry x="600" y="1280.14" width="80" height="80" as="geometry" />
        </mxCell>
        <mxCell id="Jw0zdJHMeWMEg472P-4y-191" style="edgeStyle=none;rounded=0;orthogonalLoop=1;jettySize=auto;html=1;exitX=1;exitY=0.5;exitDx=0;exitDy=0;entryX=0;entryY=0.5;entryDx=0;entryDy=0;" parent="1" source="Jw0zdJHMeWMEg472P-4y-182" target="Jw0zdJHMeWMEg472P-4y-26" edge="1">
          <mxGeometry relative="1" as="geometry" />
        </mxCell>
        <mxCell id="Jw0zdJHMeWMEg472P-4y-182" value="&lt;span style=&quot;color: rgb(32, 33, 34); font-family: sans-serif; font-size: 14.08px; text-align: left; background-color: rgb(248, 249, 250);&quot;&gt;σ&lt;/span&gt;" style="ellipse;whiteSpace=wrap;html=1;aspect=fixed;" parent="1" vertex="1">
          <mxGeometry x="600" y="1180.14" width="80" height="80" as="geometry" />
        </mxCell>
        <mxCell id="Jw0zdJHMeWMEg472P-4y-189" style="edgeStyle=none;rounded=0;orthogonalLoop=1;jettySize=auto;html=1;exitX=1;exitY=0.5;exitDx=0;exitDy=0;" parent="1" source="Jw0zdJHMeWMEg472P-4y-183" edge="1">
          <mxGeometry relative="1" as="geometry">
            <mxPoint x="930" y="670" as="targetPoint" />
          </mxGeometry>
        </mxCell>
        <mxCell id="Jw0zdJHMeWMEg472P-4y-183" value="&lt;span style=&quot;color: rgb(32, 33, 34); font-family: sans-serif; font-size: 14.08px; text-align: left; background-color: rgb(248, 249, 250);&quot;&gt;σ&lt;/span&gt;" style="ellipse;whiteSpace=wrap;html=1;aspect=fixed;" parent="1" vertex="1">
          <mxGeometry x="600" y="1080.14" width="80" height="80" as="geometry" />
        </mxCell>
        <mxCell id="Ia9KKRTMNsvTB0w6a25S-8" style="edgeStyle=none;rounded=0;orthogonalLoop=1;jettySize=auto;html=1;exitX=1;exitY=0.5;exitDx=0;exitDy=0;entryX=0;entryY=0.5;entryDx=0;entryDy=0;" edge="1" parent="1" source="Jw0zdJHMeWMEg472P-4y-184" target="Jw0zdJHMeWMEg472P-4y-28">
          <mxGeometry relative="1" as="geometry" />
        </mxCell>
        <mxCell id="Jw0zdJHMeWMEg472P-4y-184" value="&lt;span style=&quot;color: rgb(32, 33, 34); font-family: sans-serif; font-size: 14.08px; text-align: left; background-color: rgb(248, 249, 250);&quot;&gt;σ&lt;/span&gt;" style="ellipse;whiteSpace=wrap;html=1;aspect=fixed;" parent="1" vertex="1">
          <mxGeometry x="600" y="1830.14" width="80" height="80" as="geometry" />
        </mxCell>
        <mxCell id="Jw0zdJHMeWMEg472P-4y-185" value="..." style="text;strokeColor=none;fillColor=none;html=1;fontSize=24;fontStyle=1;verticalAlign=top;align=center;rotation=90;" parent="1" vertex="1">
          <mxGeometry x="590" y="1735.14" width="100" height="50" as="geometry" />
        </mxCell>
        <mxCell id="Jw0zdJHMeWMEg472P-4y-197" style="edgeStyle=none;rounded=0;orthogonalLoop=1;jettySize=auto;html=1;exitX=1;exitY=0.5;exitDx=0;exitDy=0;entryX=0;entryY=0.5;entryDx=0;entryDy=0;" parent="1" source="Jw0zdJHMeWMEg472P-4y-186" target="Jw0zdJHMeWMEg472P-4y-30" edge="1">
          <mxGeometry relative="1" as="geometry" />
        </mxCell>
        <mxCell id="Jw0zdJHMeWMEg472P-4y-186" value="&lt;span style=&quot;color: rgb(32, 33, 34); font-family: sans-serif; font-size: 14.08px; text-align: left; background-color: rgb(248, 249, 250);&quot;&gt;σ&lt;/span&gt;" style="ellipse;whiteSpace=wrap;html=1;aspect=fixed;" parent="1" vertex="1">
          <mxGeometry x="600" y="1480.14" width="80" height="80" as="geometry" />
        </mxCell>
        <mxCell id="Jw0zdJHMeWMEg472P-4y-199" style="edgeStyle=none;rounded=0;orthogonalLoop=1;jettySize=auto;html=1;exitX=1;exitY=0.5;exitDx=0;exitDy=0;entryX=0;entryY=0.5;entryDx=0;entryDy=0;" parent="1" source="Jw0zdJHMeWMEg472P-4y-187" target="Jw0zdJHMeWMEg472P-4y-31" edge="1">
          <mxGeometry relative="1" as="geometry" />
        </mxCell>
        <mxCell id="Jw0zdJHMeWMEg472P-4y-187" value="&lt;span style=&quot;color: rgb(32, 33, 34); font-family: sans-serif; font-size: 14.08px; text-align: left; background-color: rgb(248, 249, 250);&quot;&gt;σ&lt;/span&gt;" style="ellipse;whiteSpace=wrap;html=1;aspect=fixed;" parent="1" vertex="1">
          <mxGeometry x="600" y="1580.14" width="80" height="80" as="geometry" />
        </mxCell>
        <mxCell id="Jw0zdJHMeWMEg472P-4y-202" value="" style="shape=image;verticalLabelPosition=bottom;labelBackgroundColor=default;verticalAlign=top;aspect=fixed;imageAspect=0;image=data:image/png,iVBORw0KGgoAAAANSUhEUgAABAAAAAQACAQAAADVFOMIAAAABGdBTUEAALGPC/xhBQAAACBjSFJNAAB6JgAAgIQAAPoAAACA6AAAdTAAAOpgAAA6mAAAF3CculE8AAAAAmJLR0QA/4ePzL8AAAAHdElNRQfoBg8GHQFtBvaBAAAt0UlEQVR42u3dZ7ydVZk34P9J750aSOhIFxKK0lRQRAU1FEEQsICODR2dGR3bqDPKy8yojL2gCCJFuoiKDQFBQ8IgTRAhQEBI6CRA+nk/nHHUkbL3OefZ+9l7Xdf55i8C63+vs9ed51l7rQQAAAAAAAAAAAAAAAAAAAAAAAAAAAAAAAAAAAAAAAAAAAAAAAAAAAAAAAAAAAAAAAAAAAAAAAAAAAAAAAAAAAAAAAAAAAAAAAAAAAAAAAAAAAAAAAAAAAAAAAAAAAAAAAAAAAAAAAAAAAAAAAAAAAAAAAAAAAAAAAAAAAAAAAAAAAAAAAAAAAAAAAAAAAAAAAAAAAAAAAAAAAAAAAAAAAAAAAAAAAAAAAAAAAAAAAAAAAAAAAAAAAAAAAAAAAAAAAAAAAAAAACa0yOC4myemUKADrYsVwqBgRsmguK8Jf8oBOhgD2WaEBi4ISIA6ChT/NUNDQBAeXoyRQhoAGherwigw3kFgAYAQAMAGgCAEqwlAjQANM8rAPAEADQAABoANAAAaADQANCVvAIADQBoAAA0AGgAANAAoAGgK3kFAJ3O1wDRAAB4AgAaADwBgBKMzWghoAEA8AwANAA8p5UiAA0AaADK8/ksEAJ0ONsA0QDQtIdzWJaLATwBQANAaebmeCGABgANAOX5ar4pBNAAoAGgPO/IfCGABgANAKVZloPyoBhAA4AGgNLclcOzWgzQkXwLAA0AA/DTfFII4AkAZeoRQeH1Py+vEQN0nPuznhDQADAQk3NNNhUDdJhVGeFeDwbGK4DSPZI5eVIM0GGGZaIQ0AAwMNfnOCFAx7ENEA0AA3Z6viwE6DC2AaIBYBAcn18JATQAaAAozcockvvEABoANACU5r4ckVVigI5hDwAaAAbJL/JhIUDHmCoCNAAMlhPzPSGAJwBoAChNb96Um8UAHcEeADQADKKlmZPHxQAaADQAlObWHO2AUdAAoAGgPBfks0KA2rMHgAFyGRB/a1h+mr3FALXWm5FZKQY0AAyudTM/6xcy1hNzgoJ3qNEZ9T+fY5P+538ZmzEZn4kZmzGZmPEZm7GZlHFZN2tnTNeNf73cbxKgAWCw7Z5fZHgRI12dl+enCl6AsVkva2etrJt1slamZ+NskgkdPaLtcqOyogFg8L07JxUy0gcyO3creJGmZdNskk2yaTbJZpneYf/1L85lSogGgCqckqMLGenc7JXlCl68idkuszIrW2fbjOyA/95DHd0FVGNsrk9vIT8uROYvjc7OOS7fyp21nrV/p1BAVTbLI8W0AG9Ubp7G+jkkX83dtZyzH1EeoDqvzppCGoAn83zl5hltnXfl0qyo1Zw9SVmAKv1bMc8Abs9k5eZZTc6RubA2bcDpCgJUaWguLaYFuNjZmDRgrbwr82swX3+sFEC1puSOYloAb1Vp1Kx8NU+0dbZeqwhA1XbOskIagNXZT7lp2Nr5tzzattnq9AqgBY4t5hnAg5mp3DRhYj6aJW3auArQAt8opgX474xWbpoyLSdlVRvm6ljRA9UblWuKaQG+rtw0betc0vKZ6mkV0BIb5cFiWoA3KTf98OoWHxk0S+RAa+zTlsec7fh5KrOVm36YmK+2cJ6+XOBAq3ykmGcAd2WactMvr8gfWzRLjxQ20Co9Oa+YFuAnGarg9MvaLfo9eY+o6T/nntGc3rwpfyhkrPs6Foh+Wpw5eWtWVf7v8ZQKaKnt2nz+WSuPBXqFctNvL8vDFc/QrwgZTwBopRtybDG/H9/JJgpOP12aXXKzJwBAd/lCMTsBrssY5abfxufCCmfnLwUMtNrwXFFMC3CacjMAQ3NKZXPzJvECrbduy77q1P6f45SbARiSkyuamYuEC7TDi7KykAZgWXZWbgagJ/9VycxcZR8X0B7/UMwzgLuzlnIzoBbgM5XMzKmiBdrzoXZOMS3Ajx0LxAB9roJ5uaVYgfYYl5uKaQE+qdwMsGE+fdBn5e5iBdplyzxWSAOwJq9VbgZkVK4c5Fn5aqHSXzaQMFC35uj0FvL3t29mMwVnAJbl1bl1UP+J9qagAaCNLshnChnppJznWCAG5KHsP6hf3nMWIBoA2uoDxZxItl2+rNwMyIIcNIjXBGkA6Df7mhkMa/LDHJ4JRYx1hyzOPCVnABZmZfYdpH/WbblAoEB77ZblhWwGXGHnNQPUk4sGaTZeLEyg/d5ZzBcCF9p6xQCtlXsGZS7+WpRAHXyrmBbg5xmm3AzIXlk1CDPxD4IE6mBMfltMC/Bp5WaAPj4I8/AxMQL1sFEeLOZYoIOUmwEZkRsHYSaOFCRQD6/K6kJagMezlXIzILsOwm/L+mIE6uKTxbwGuCFjlZsB+dKAZ+H2QgTqYkguKaYFOEO5GZAJWTjAObiPEOnvRzUMtjU5MgsKGetheZeCMwCP520D/Cc4CxColdl5qpBnAMvzQuVmQC4e0Ax8hwDxBIA6mZfjChnpiJxrGxYD8v4B3Q3gCQAaAGrmtHyjkJGum9MdC8QA3JLTNABANxmZucVsBjxRuRmA6XnCRlQ8AaB7LM/BebCQsb4/hyg4/XZvPu8JANBd9hmU88474WdJtlZu+m1Sv8/QvE54eAJAHf0sHytkpOPyvYxTcPrp0X6/RvIEAKipnpxbzE6AM5WbfhufR/o165aJDqjvB9vvimkB3qPc9NsJ/Zx140UH1NV2WVpIA7Ayeyk3/bROP4/P2lh09Ic9ALTCDTm2kJEOy9mOBaKfFuW7/fr/rSU6oM4+X8xrgKsyQrnply37dT3wKwSHJwDU2d/nikJG+oJ8Wrnpl1tzcT/+X74HgAaAWluZw7OomGbnUAWnX76gAUADQPe5N3OyspCxnpxtFJx++FkWagDQANB9rsoHCxnpuJyXCQpO09b042IgDQDQEc4qZjPgBelRbpq2edY0OdPOFxrQGX83vrGYFuB9yk0//KrJeXaFyIDOsEUeLeZYoL2Vm6Yd1+Q8+53IgE7x6qYfcnbqz/2Zrtw0aUKeaGqWPSAyoHOcWMxrgCszXLlp0hlNzbHVGSoyoFMMzaXFtAAnKTdNOqzJOeYwYKCDrJ2FxbQARyk3TZmY5U3NsK1ERvOcA0C7LM7BWV7IWL+UbRWcJjyWy5v6804CQANAR/lNMV+TG5vzMlHBacL3NQBoAOhmX8wphYx085zqWCCacGFTf9oeADQAdJy/y7WFjPTA/KNy07C7cr0nAGgA6GbLclAeKmSsn8rLFJyGXaQBQANAd7szx2RNIb9tp2UDBadBP9AAoAGg212cfytkpGvnnIxUcBoyL0s0AED3N6KXFHMmwBeUmwb9qOFZNVdYeAJAZ1qTI3JHIWN9R45RcBryy4b/pG8BAB1shzxZyDOAp7KTctOAFzQ8p5YIC+hkbyjmNcBtmaTcPKfhWdrwnBolLprlFQD1cVq+VshIN8tpfvd4TitzdcN/1jZANAB0tHfnmkJG+qp8QLl5To3vAtAAAB1uwywu5DXA6uyn3DyHPRueTy8VFp4A0NkW5oisLuR37zuZoeA8q7lZ4QkAGgBK8ZN8tJCRTsv3HAvEs1qeGzUAaAAox6dzbiEj3SWfU26eVaOXZWkA0ADQBXrzxvyukLG+LW9UcDQAaACgz5IcmicKGeuXMkvB0QCgAYA+N+YthYx0VM7NVAXnGfw2Kxv6cw4DRgNA1zgz/1XISGfm234TeQbLcosnAGgAKM37c0UhI31lPqTcPIP5GgCgPOvm3mKOBdpfuXla725oBq1Ij6jwBIDucX8Oz6pCfhNPy0wF52k0tg1weCaICg0A3eTy/FMhI52aCzJawfkbNzf452wDBLrOqcVcE/x1xeZpNHY/xm6CwhMAus3bc1MhI31L3qzc/A3fA0ADQKGWZk4eK2SsX8hsBef/uFUDgAaAUv0+R6e3iJGOyrk+yOlXA2APABoAutKF+fdCRjojZ2SogvMXGnsF4DxJNAB0qX/OpYWMdN98RLlp+gmAJ0dA15qaBcUcC/QK5eZ/Dc2yBmbNhYLCEwC61UN5XZYX8nv5nWyq4PyP1bndEwA0AJRtbt5byEgn53uOBeJ/NbILQAOABoCu9uV8q5CR7pivKTf/444G/oxvAaABoMu9vcHb0TrfkTlOuUmSLGzgz0zKMEGhAaCbLctBeaiQsf5XdlZwktzdwJ/p8UVANAB0u7tyeFYXMdKROdeDXRpsAOwCQANAAX6Sfy1kpBs6FggNAMBftq4/KOaOwH9VbrK0gZlysJjwBIDutyZHNrQzuhv8c+YoePEa2QboCQAaAIrwSObkySJG2pOTs5mCF66RlwAaADQAFOK3eWshI52U8zJGwT0B0ACgAYA+38lXCxnpdvm6cmsANABoAOBPjs/cQkb6+vydchfMKwA0APBXlufgPFDIWE/K7gperPs0AGgA4K8tzGGFHAs0PGc6FqhYixv4M2YHGgAK8/N8pJCRbpCznPdeqEaec2kAgOL05JxijgX6tHIXaWRDs8N3RYDijM/NhTQAa3KQchfpsQZmxwwx0TivAOgOSzInjxfytONb2UrBC2QXABoAeFq35LhinnacnbEKrgF4Gr4HgAaAIp2VzxUy0m3zDeUuTiPbADUAaAAo1D/k8kJGeljepdyeAGgA0ABAn1U5NPcWMtb/zJ4KrgHQAKABgD6LckhWFDHS4Tk76yt4QbwCYJD1iICu8558tpCRXpaXZpWCF2LbvPI5/8zvcpGggJJ9u5hjgU5UbAD4k7G5oZhjgQ5RbqA/vAKgO22eazKxiJEuza65WcGBZtkESHe6LUelt4iRjst5maDgQLOGioAudWtGZY8iRjotm+QcBQc0ANDnF9ktmxUx0m3zWH6t4ADQZ0oWFLIZcGX2Um6gGTYB0t12yeUZWcRIF2Wn/FHBgUbZBEh3m5v3FDLSdXJORig40Ch7AOh28zIjOxYx0g0zLj9WcADoMyrzijkZ8FDlBhpjDwAlmJl5hVyTsjS75SYFB56bPQCU4K68PquLGOm4nFfICYjAANkDQBnuSE9eVMRIp2arnKXggAYA+lyR2dmiiJE+L0tzlYIDQJ/J+UMxxwLtrdzAs7MJkJJsn6szpoiRLsqs3KvgwDOzCZCSXJ/jChmpY4GA52APAGW5Ietk5yJGukEm5kcKDgB9hufKYo4FOkq5gWdiDwDl2SDzs3YRI30iu+VGBQeejj0AlOeeHJZVRYx0rGOBgGdiDwAlujMrsm8RI52arR0LBGgA4E+uyjbZuoiRbpmn8isFB4A+43JTIVsBV+dlyg38XzYBUq4tMzcTihjp4szKPQoO/CWbACnXrTkmvUWMdO2ck5EKDvwlewAo2S2ZmBcUMdINMjmXKDgA9BmWy4o5FugY5Qb+zB4ASrdO5md6ESNdlt1zrYIDfewBoHSLckhWFDHSUTkrkxQc6GMPANyTJXl5ESOdkm1zViEbHwENADyn32ST7FDESLfIilyh4ADQZ3SuLeZYoJcrN2ATIPzJ5plbyBvyhzM7CxQcSmcTIPS5LUcV8nZ8Ss50LBBgDwD8ye8zInsWMdLpWSsXKzhoAIA+l2XXbFbESGdnYf5bwaFk9gDAX5qSedm4iJEuyx6Zr+CgAQD6PD9XZXQRI70rs/KQgkOpvAKAv3Z/HsgBRYx0UrbJmY4FAg0A0Gd+NsxORYx0i6zJLxUcAPqMyjXFHAu0v3JDmewBgKczI/MzrYiRPpLZuUPBoTwOAoKnc3cOz+oiRjo55xWy6RH4K/YAwNO7I8mLixjpulkn31dw0AAAfS7P9tmqiJHulHscCwSlsQcAntmkzMumRYx0WfbMPAUHDQDQZ/tcnTFFjPTuzMqDCg7lsAkQns31ObaQkc7IGV4JQkn8wsOzuyFrZ+ciRrpJenOZggNAn+G5opBjgdbkNcoNpbAHAJ7bepmf9YoY6SPZObcrOJTAHgB4bvfliKwqYqSTc14hmx6hePYAQCPuzLK8tIiRrpOZOV/BQQMA9Lk6W2ebIka6fe7LfAUHgD7jclMhmwFX5IXKDd3OJkBo3JaZmwlFjHRhZuUBBYduZhMgNO7WHJ3eIka6oWOBoNv5FYdm3JLxhTwe3yRD83MFB4A+w3JZMccCzVFu6F72AECz1sn8TC9ipEuyS25RcOhO9gBAsxbl4KwoYqTjc7ZjgaBb2QMAzbsnj2X/Ika6TjbOeQoOGgCgz9xsnOcXMdLt8kCuUXAA6DM61xZzLNDuyg3dxyZA6K/Nck0mFTHS+zIr9yk4dBebAKG//pA3ZE0RI10vp2eYgkN3sQcA+u/3GZG9ihjpxhmRnyk4APQZkh8WcyzQQcoN3cQeABiYKZmXjYsY6ZLsmt8pOHTP31+AgXg4c/JUESMdn/MyXsGhW9gDAAN1fxbngCJGOi0b51wFBw0A0OfabJidihjptnk4cxUcAPqMytxijgXaU7mhG9gECINjRuZnWhEjvT+z8kcFh05nEyAMjrtzWFYXMdJ1870MV3DodPYAwGBZkDV5SREj3TCj8hMFB4A+PTm3mGOBDlFu6PQPLGDwjM/cPK+IkS7NrrlZwaFz2QMAg2lJDs0TRYx0XM7LBAUHDQDQ54YcW8hIt8wpniFC57IJEAbbjZmWXYoY6VZ5NL9WcADoMzyXF7IZcGUh1yFDF/IAD6qwbq7NekWMdFF2ciwQdCJ7AKAK9+fgrCxipOvknIxQcOg89gBANRbmqbysiJFumHH5sYKDBgDoc3W2yjZFjPQFuSPXKzh0FnsAoDrj8ptsXcRIl2a33KTgoAEA+myRawo5Luf32SWPKTh0DpsAodpl8aj0FtLqfNtfKKCT2AMA1bo14/LCIkb6vCzNVQoOAH9qsy8t5FigVXmpckOn8MgOqrd25meDIka6KLNyr4JDJ7AHAKq3OIdkeREjdSwQdAx7AKAV7skjeUURI90gE/MjBQcNANDnmmyU5xcx0l2zIL9VcADoMyrzC9kM+GR2VG6oO5sAoXU2yrxMLWKkt2VnxwJBvdkECK1zZ47JmiJGunlO9dcLqDd7AKCVfp9h2buIkW6Zp/IrBQeAPkNySSE7AVYXch0ydCgP6aDVJmdeNilipA9ldu5UcKjr30aA1nokc/JUESOdmjMzUsGhnuwBgNZblLvz2iJGukGm5BIFBw0A0Of6TM+sIka6c+7KdQoOAH1GZm4hmwGfyk7KDfVjEyC0y4aZn7WKGOmdmZWHFRzqxSZAaJeFOTyrixjpRvm2zxqoG3sAoH0WZHVeUsRIt8iKXKHgANCnJ+cWcyzQy5Ub6vXxA7TT+MzN84oY6cOZnQUKDnXhvRy015IcmieKGOmUnJvRCg51YQ8AtNviLMhBRYx0vUzLxQoOGgCgz42Zml2LGOnsLMx/KzgA9Bmey4s5FmiWckMd2AQI9bBu5mf9IkZ6V2blIQWHdrMJEOrh/hySFUWMdGbO8PIR2s+vIdTFwjyZ/YoY6aZZnV8qOAD8yVnFHAu0v2JDe9kDAHUyLr/ONkWM9JHMzh0KDu1jDwDUydLMyWNFjHRyznMsELSTPQBQLw/ld3ldEc/m1s2MnK/goAEA+tyaMdm9iJHukHscCwQAf27Mf1zMsUCzlRvawyZAqKO1Mz8bFDHSuzMrDyo4tJ5NgFBHi3Nwlhcx0hmOBYL28IsH9XRvHs4rixjpJkkuU3DQAAB9rsnM7FjESPfKb3OLgkNr2QMA9TU6V+X5RYz0+uyg3NBa9gBAfT2V1xRxb97SHK3YoAEA/uyuHJ7VXT7GNTky1yk1tJo9AFBvd2Ro9u7qEb4/pygzAPxfQ3JJFx8FdLICA8DTm5zbu3T5vywjlBcAnskOeaILl//fZbLSQrvYAwCdYFHuzpwuG9ND2Tf3Ki1oAIBnc33W66qLc1bmwMxXVgB4LsNzZRc9/j9KQQGgMRtmcZcs//+qmADQuJdkVRcs/+c4ggzazx4A6CQLsjL7dPgY5ufArFBKAGhGT87p6L/935vpiggAzRufmzt2+V/i1j8A6K/n5fGOXP5X50DFA4D+O6wjG4DjFQ4ABuZzHbf8f0PRAGCghuWXHbX8X5phigYAA7dO7u2ga38mKRgADI4XZHlHLP8PZjPFgrpxEBB0rnvyRPar/X/lihyYaxULAAbTqTX/2/+avEGRAGCwjc2NtW4APq5EAFCFzfNobZf/76VHgQCgGgdmTS2X/2syRnGgrmwChM53a0Znj9r9V92Vl+RRxQGA6gzJj2r2t//Hs72yAEDVpmRBjZb/VTlASQCgFXbJsto0AO9SDgBolbfVZPn/ulIAQCudXIPl/0eu/QGA1hqVeW1e/m927Q8AtN7MPNDG5f+BbKoEANAOL82qNi3/T+WF4odO4SAg6DZ3ZEhe1IZ/b2/elB+IHwDaZUh+0Ia//39M8ADQXpPzhxYv/2e79gcA2m/7POHaHwAozxEtW/4XZB1xA0BdfLlF1/5sJ2oAqI/hubIF1/68StAAUC+bZXXFDcA7hAwA9dKTUyte/k8SMgDUzYdd+wMApTm44sf/N2WikAGgXmZVfA6Aa38AoHam556Kr/15gZABoF7G57pKl/81eb2QAaBehuTCijf/fUTIAFA3J1W8/J/l2h8AqJu3VLz8X5mRQgaAenlZVlZ87c/aQgaAetkqj1S6/D+WbYUMAPUyLbdVfO3PK4UMAPUyKr+q+O3/24UMAPXSk9MqXv4/K2QAqJt/qXj5/2GGChkA6uWQrHHtDwCUZeeKr/25LzOEDAD1slHur/jan92EDAD1Mj7XV3ztz+FCBoB6GZrvV7z570NCBoC6+ULFy/+Zrv0BgLp5d8XL/xWu/QGAunl5xdf+3OHaHwCom63zqGt/AKAs6+bOSpf/ldlXyABQL6NydcVv//9OyABQLz05veLl/z+FDAB1868VL/+XuPYHAOrmdRVf+3NjJggZAOpljyyr+NqfDYUMAPWycRZVuvw/mV2FDAD1MiE3VHztz2FCBoB6GZZLK9789wEhA0DdfKni5f8UEQNA3fy9a38AoDT7Z1XF1/6sJWQAqJdt8ljF1/5sI2QAqJf1cnely/+K7CNkAKiX0fl1xW//3yZkAKiXnpxR8fJ/opABoG5OqHj5/4FrfwCgbo6pePm/NuOEDAD1smfF1/780bU/AFA3m2Rxxdf+7CJkAKiXKbm10uV/dV4rZACol+H5acVv//9RyABQN1+pePn/logBoG7+seLl/3LX/gBA3byy4mt/bs80IQNAveyYpZUu/w9lCyEDQL2sn4Wu/QGAsozO3Irf/r9VyABQL0NyfsXL/wlCBoC6+Y+Kl/9zM0TIAFAvb6r82p+xQgaAetkryytd/u/NBkIGgHrZMg9XfO3PzkIGgHqZmt9XfO3Pa4QMAPUyPD+v+O3/+4QMAHXztYqX/2+KGADq5p8rXv5/mRFCBoB6OSirK13+b8lkIQNAvcyq/NqfzYUMAPWyfu6p+NqfFwsZAOplXK6r+O3/sUIGgHoZkgsrXv4/JWQAqJvPufYHAErz5oqX//mu/QGAunlZVrr2BwDKslUeqXT5X5IdhAwA9TI1t1V87c+rhQwA9TIil1X89v+9QgaAeunJaRUv/98QMgDUzUcrXv4vc+0PANTNIVlT6fL/O9f+AEDdzM4TlS7/D7r2BwDqZmbud+0PAJRlfH5b6fK/Jm8QMgDUy9B8v+LNf58UMgDUzecrXv7Pce0PANTNuype/udljJABoF72q/jan3syXcgAUC9b59FKl//HXfsDAHUzLX+o+NqfA4UMAPUyKldV/Pb/eCEDQL305HTX/gBAaT5R8fL/4wwTMgDUy6EVX/tzcyYJGQDqZfcsq/jan82EDAD1slEWVbr8L8+LhAwA9TIhN7j2BwDKMiyXVrz57+NCBoC6+WLFy//Z6REyANTLeyte/q9x7Q8A1M3+WVXp8n9n1hEyANTLNpVf+7O9kAGgXtbNXZUu/6tygJABoF5G59cVv/1/p5ABoF56ckbFy//XhQwAdfOpipf/H7n2BwDq5uiKl3/X/gBA7exR8bU/D2RTIQNAvWycxZUu/0/lBUIGgHqZkBsrvvbnCCEDQL0Mz08rfvv/MSEDQN182bU/AFCaf6h4+Z/r2h8AqJtXVnztzwLX/gBA3eyYpRVf+7OdkAGgXtbL3RVf+/MqIQNAvYzN/Irf/r9DyFTqfflSjsiGggBo3JCcX/Hyf5KQqdifTq/4Y87O8ZmVISIBeC7/XvHy/0PX/lCx6VnzN3tOfpJ/yb4ZKRyAp/fGipf/mzJRyLRtFj+RK3NCDshkIQH8pRdnRaXL//2ZKWQqd3oD21DnZY6gAPpsmgdc+0PHG5JFDc3Ht4oKIEmm5NaKr/15vZBpgVkNzsh9RAWQDM/PKn77/2Eh0xIfaHBGeh0FkORbFS//p7n2hxb5eUMzcpmvBgIkH6x4+b/S169okYkNbmS9WVQAc7K64mt/1hYyLfL6BmflRaIqj4c+8Nd2yqmV/l48ngOyWMy0yAEN/rnbRAWUbf0srPjan1cKmZYZnocbnJlvFxZQsnG5ruK3/z5maaWXNDwzXyYsoFxDckHFy/9nhUxLfbbhubmxsAAfllX9XJKhQqalbmtwbi43N4FyvbXi5f+3GS9kWmqbhmfnrcICSrV3lle6/N+XGUKmxT7e8Py8WFhAmZ7X8F7p/l77s5uQabmbGp6hnxMWUKKpDb8p7e+1P4cLmZbbrok5+k5xAeUZkV9U/Pb/n4VMG3yiiTn6cnEBpenJqRUv/2e49oe2uLmJWbqZuIDSfKTi5f8K1/7QFts3MUtXZrjAgLIcnDWVLv93ZC0h0xafbGKeugcAKMzsPFHp8v9YthUybdGTPzQxU38oMKAkM3N/pcv/iuwrZNpkz6bm6n8JrEyuA6ZM43NR1qn033B8fipm2uSopv707QIDSjE0F1W8+e8/hEzbjMojTc1WV1QDxfi8a3/oYoc3OV+3FBlQhmMrXv7/O+OETBv9qKn5uiojRAaUYL+srHT5/2M2FDJttH5WNTVj7QAAirBtHqt0+X8is4VMW32wyTl7qciA7jetqW9H9+fan8OETFsNyYImZ+0XhQZ0u1G5quK3/x8QMm32qqZn7XuFBnS3nnyn4uX/FCHTdj9oet4eIDSgu3284uX/ctf+0HYzm9wA2JvebCU2oJsdWvG1P7e79ocaOKHpmbs6o8QGdK8X5qlKl/+HHKVCDYzIoqbn7p1iA7rXRv34WGzu2p99hEwNHNOP2evGCqBrTcj1Fb/9f5uQqYXr+jF7vyw2oDsNzcUVL/8nCpla2L9f8/f9ggO60xcrXv4vdu0PNfGzfs3g1wgO6EbvqXj5vzZjhUwt7NDP77lsKzqg++zfj+9Eu/aHznR6Pw+vHi06oNtsn8crXf6XZichUxMbZUW/ZvFC0QHdZt3cVenyvzqvFTK18fV+zuOfiw7oLqNzdcVv//9ByNTGzCzv5zz+mvCAbtKT71a8/H9LyNTIyf2eyf8kPKCb/JtrfyjIpv18/9+b3swRH9A9jqp4+b8904RMjZwygNm8vfiAbrFnllV87c/mQqZGtsjKfs/mNc6xALrFxllc8bU/LxEytXL+AObzveIDusOE3Fjx4//jhEytvLCf5//1/fxSgEA3GJ6fVLz8nyBkaqUncwc0o78hQqAbfLni5f/cDBEytXLkAOf0B0UIdL73V7z8z7ddipoZlTsHOKsPESLQ6V6d1ZUu/wuzvpCpmQ8PeF7vKESgs+2YJZUu/09mZyFTM5vlyQHP7PFiBDrZerm74mt/XiNkaufSAc/s+4QIdLLR+U3Fb//fJ2Rq54hBmNlXiBHoXD05s+Ll/2QhUzsT80dXWgFl+38VL/8/y3AhUztfG5TZ/WFBAp3qmIqX/1syWcjUzksHdPrfn39eJ0qgM7n2hxJNzsJBmuGzhAl0ok3yQMXX/rxYyNTQWYM2xycKE+g8U3JrxY//jxUyNXTUoM3wxcIEOs+I/KLi5f9TQqaGZubRQZvjV4kT6Dxfde0PBRqeKwdxlp8qUKDTfMC1PxTpK4M6zz8qUKCzzKn42p97s4GQqaEjBnmmv16kQCfZKUsrXf6XZAchU0Pb54lBnuu7CBXoHBvk3kqX/1U5QMjU0LTcPuizfYpYgU4xJnMrfvv/XiFTQ6MGdfNf38+DYgU6xZBcUPHy/w0hU8uZf04Fs/3XggU6xX9WvPxflhFCpoY+U8l8/45ggc5wXMXL/82ZJGRq6PiKZvzHRQt0gr2zvNLl/8FsJmRq6M2Vfen1SOEC9fe8PFzxtT8vEjI19KYKz7zYTbxA3U3N7ytd/tfkDUKmsOW/N9MEDNTbyFxe8dv/TwqZGnpzpcv/IwIG6q0np1a8/H/PtT/U0PFZU+m8v0bEQL19uOLlf17GCJmaGZovVTzve3OGmIE6O7jia3/uyXQhUzNjclHly39vPiFooL52zZOVfgQ+nu2FTM3MqPy4676fo0UN1NX03FPpB+DqHChkauYlub8ly39vdhc2UE/j89uKPwDfLWRqpSf/VPErr7/8WUfgQB0NzQ8q/vj7kpCplem5tGWLf28eFzhQTydV/PH34wwTMjVySB5q4fLfm/kiB+roLa79oSDr5cKWLv696c1ZYgfqZ7+srPSjb3E2FjI1MTzvyqMtX/578ynRA3WzVR6p9INvefYWMjWxb25ow+Lfm968UfhAvaydOyq+9ucIIVOTVveHbVr8e9ObvRQAqJNR+VXFH3v/ImRqYGa+WvGLruf6WU8RgProyWkVf+idnR4x02YzclKWtXXx781SvwlAnXys4g+9qzNKyLTVlvlalrd58e9Nb65TCqA+Dqn48tM7nXxGW+2Rs7OqBot/b3pzjnIAdfHCPFXpB95j2VbItMmoHJF5NVn6+35OUBSgHjaq+AKUVXmVkGmLLXJCFtdq8e9Nb96iMEAdTMyNFX/cvVPItNy4vCGX127p7/t5kfIA7Tc036/4w+5rQqalRuaAnJolNV38e9ObDRQJaL8vVvxR90PX/tDCpf/lObnisywH/vOkLwEC7ffuij/qbnLtDy0xJYfk1Lac6t/8z/XKBbTbKyr+WtSibCRkKjU0O+eDuaw2X/Br5Od8ZePPPCKlHbbLmRla4T9/WV6TO8VMRbbMPtknL87kjvsv/4PioQGgndbN9zO+wn9+b96Sq8XMoH9a7pA9Mit7Z0bHjkEDgAaANhqdCzKz0n/Dx3O6mBm0z8gts2N2zC6Z3QUHSmsA0ADQNj05JbtW+m/4bj4hZgZoarbO1tkxO2a7jO6icWkA+KuPY2ilT+bDlf7zr8o+WSZmmjYiM7JJtszWeV62yVpdOcZlGZs1So0nALTDG/KhSv/5C/Jayz8NGZMZWS8bZGY2zibZOBtUui21Hu6w/KMBoD32yNcrfeb0WA7IYjHzV4ZncqZlaqZmWtbKtEzN+pme6ZlYYBZeAKABoC02zfkZWem/4exsna0FXZSxGZGkJ5OSTEpPxmdYxmZcJmRCJmV8JnTBxj0NABWxB4DWmJBfuZYX2urt+bIQ+LMhIqAFhudcyz94AoAGgNKclH2FABoA6sQrAKr39/lPIUCbrciYrBYDngDQOvvnRCFA291h+UcDQCs9P2cX8P1qqD8vANAA0ELr5aKMEwNoANAAUJLROT8bigFq4XYRoAGgNXryzYqv/QEad5sI0ADQGp/OYUKA2vAKgL/5WxpU4Zh8SwhQG6syJivFgCcAVG3PfEUIUCMLLP9oAKjeJjm34mt/gOZ4AYAGgMpNyQ+zlhhAA4AGgJIMz9nZQgygAUADQFk+n32EABoANACU5Z/yViGABoBO4GuADJ5X5kLn/kMNrc6YrBADngBQjR1zluUfaukuyz8aAKqyfi7KWDFALTkGGA0AFRmdC7KBGKCm7ABAA0BFs+i72VkMUFtuAkQDQCVOzGuEADXmFQAaACrwprxPCFBrXgHwNHwNkIHZKz/JCDFAja3JmCwXA54AMJi2zAWWf6i5uy3/aAAYXFPz/UwWA9ScFwBoABhUw/O9bC4G0ACgAaAsX8yLhQAaADQAlOVDOVYIoAFAA0BZDsonhAAaADqZrwHSvFn5pXP/oUP0ZmyeEgOeADBw6+dCyz90jHss/2gAGAzjckmmiwE6hmOA0QAwKPPl9OwgBuggdgCgAWAQfCYHCgE6ipsA0QAwYG/O8UIATwDQAFCWl+UrQoCOYw8Az8DXAGnMVrkqk8QAHaY34/OEGPAEgP6amoss/9CB/mj5RwNA/43IudlMDNCB7ABAA0C/9eTk7C0G0ACgAaAsH82RQgANABoAynJIPiYE0ACgAaAss3OKb4qABoBu5MOdZzYzv8k6YoAONiFLhIAnADRnfC6y/ENHu9/yjwaAZg3Nd7O9GKCjOQUQDQBN+1xeJQTocHYAoAGgSe/KO4UAHc9NgGgAaMp++YwQwBMANACUZeuclWFigC5gDwDPwtcA+WvT8utsKgboCpPymBDwBIBGjMpFln/oEost/2gAaExPTs4LxABdwg4ANAA06BN5vRBAA4AGgLK8Lh8SAmgA0ABQlt3zbVtCQQOABoCybJTzMlIMoAFAA0BJJuT7WVsMoAFAA0BJhuWcbCsG6DIP5REhoAHg2ZyUlwoBuo5TANEA8Kzem7cLAbqQFwBoAHgW++ffhQBdyU2AaAB4RtvkjAwVA3gCgAaAkqybSzJRDNCl7AFAA8DTGp0LMkMM4AkAGgBK0pNvZlcxQNd6NA8JAQ0Af+tTOUwI0MW8AEADwNM4Oh8QAnQ1LwDQAPA39sjXhAAaADQAlGa/jBACaADQAACgAUADAIAGAA0AAJ3m8SwWAhoAAH//Bw0AQNdzCgAaAABPAEADAFACVwGjAQAokFcAaAAACuQVABoAgOIszSIhoAEAKO/v/71CQAMAUF4DABoAAA0AaAAANACgAQDQAFCqYSIozrI8IgTQAAAAAAAAAAAAAAAAAAAAAAAAAAAAAAAAAAAAAAAAAAAAAAAAAAAAAAAAAAAAAAAAAAAAAAAAAAAAAAAAAAAAAAAAAAAAAAAAAAAAAAAAAAAAAAAAAAAAAAAAAAAAAAAAAAAAAAAAAAAAAAAAAAAAAAAAAAAAAAAAAAAAAAAAAAAAAAAAAAAAAAAAAAAAAAAAAAAAAAAAAAAAAAAAAAAAAAAAAAAAAAAAAAAAAAAAAAAAAAAAAAAAAAAAAAAAAAAAAAAAAAAAAAAAAAAAAAAAAAAAAAAAAAAAAAAAAAAAAAAAAAAAAAAAAAAAAAAAAAAAAAAAAAAAAAAAAAAAAAAAAAAAAAAAAAAAAAAAAAAAAAAAAAAAAAAAAAAAAAAAAAAAAAAAAAAAAAAAAAAAAAAAAAAAAAAAAAAAAAAAAAAAAAAAAAAAAAAAAAAAAAAAAAAAAAAAAAAAAAAAAAAAAAAAAAAAAAAAAAAAAAAAAAAAAAAAAAAAAAAAAAAAAAAAAAAAAAAAAAAAAAAAAAAAAAAAAAAAAAAAAAAAAAAAAAAAAAAAAAAAAAAAAAAAAAAAAAAAAAAAAAAAAAAAAAAAAAAAAAAAAAAAAAAAAAAAAAAAAAAAAAAAAAAAAAAAAAAAAAAAAAAAAAAAAAAAAAAAAAAAAAAAAAAAAAAAAAAAAAAAAAAAAAAAAAAAAAAAAAAAAAAAAAAAAAAAAAAAAAAAAAAAAAAAAAAAAAAAAAAAAADQqf4/oKt+4AmagJ0AAAAldEVYdGRhdGU6Y3JlYXRlADIwMjQtMDYtMTVUMDY6Mjk6MDErMDA6MDCS9a7WAAAAJXRFWHRkYXRlOm1vZGlmeQAyMDI0LTA2LTE1VDA2OjI5OjAxKzAwOjAw46gWagAAAABJRU5ErkJggg==;" parent="1" vertex="1">
          <mxGeometry x="1209" y="1025" width="59.86" height="59.86" as="geometry" />
        </mxCell>
      </root>
    </mxGraphModel>
  </diagram>
</mxfile>
